<svg id="レイヤー_1" data-name="レイヤー 1" xmlns="http://www.w3.org/2000/svg" viewBox="0 0 492.77 108.89"><defs><style>.cls-1{fill:#3a3a3c;}.cls-2{fill:#f05351;}</style></defs><title>reactive_logo</title><path class="cls-1" d="M120.94,210.87a29.6,29.6,0,0,0-8.12-1,28.37,28.37,0,0,0-9.27,1.44,26.35,26.35,0,0,0-7.28,3.82c-0.25.19-.51,0.39-0.76,0.6a4.25,4.25,0,0,0-4.25-4.16H77.7l0.09,4.34q0.14,7.31.35,11.89c0.14,3,.21,5.91.21,8.74v45.67a4.25,4.25,0,0,0,4.25,4.26H96.23v-41.7a18.74,18.74,0,0,1,1-5.77,17.63,17.63,0,0,1,3-5.55,16,16,0,0,1,5.06-4.15,15.26,15.26,0,0,1,7.21-1.55,11.66,11.66,0,0,1,3.87.43l4.71,1.8L124,215.79A4.26,4.26,0,0,0,120.94,210.87Z" transform="translate(-77.7 -179.27)"/><path class="cls-1" d="M192.44,235.73l-1.8-3.85A42.67,42.67,0,0,0,182.46,220a35,35,0,0,0-11.41-7.85,34.17,34.17,0,0,0-13.79-2.6,36.83,36.83,0,0,0-15.1,3.64,37.4,37.4,0,0,0-12.22,9,37,37,0,0,0-7.4,12.55,38,38,0,0,0-2,14.65,41.47,41.47,0,0,0,4,15.24,40.51,40.51,0,0,0,9.22,12.82,39.11,39.11,0,0,0,12.53,7.85,36.5,36.5,0,0,0,14.62,2.31,39.69,39.69,0,0,0,15.13-3.8,41.11,41.11,0,0,0,14-10.55,40.25,40.25,0,0,0,8.24-17.1l1-4.06-13.11-3.39a4.29,4.29,0,0,0-3.47.61,4.22,4.22,0,0,0-1.83,3,22.07,22.07,0,0,1-3.5,9,19.42,19.42,0,0,1-8.51,7.06,18.73,18.73,0,0,1-7.46,1.83,20.11,20.11,0,0,1-14-5,22.39,22.39,0,0,1-2.52-2.52l45.54-21.22A4.27,4.27,0,0,0,192.44,235.73Zm-54.28,12.16a15.38,15.38,0,0,1-.06-1.93,19.6,19.6,0,0,1,1.44-6.86,20.43,20.43,0,0,1,3.94-6.17,18.17,18.17,0,0,1,5.87-4.34c5.13-2.39,9.56-2.8,13.56-1.26A15.55,15.55,0,0,1,170.1,233Z" transform="translate(-77.7 -179.27)"/><path class="cls-1" d="M563.69,235.73l-1.81-3.85A42.64,42.64,0,0,0,553.71,220a35,35,0,0,0-11.41-7.85,34.19,34.19,0,0,0-13.79-2.6,36.87,36.87,0,0,0-15.11,3.64,37.43,37.43,0,0,0-12.22,9,36.87,36.87,0,0,0-7.39,12.55,38,38,0,0,0-2,14.65,41.4,41.4,0,0,0,4,15.24A40.48,40.48,0,0,0,505,277.41a39.19,39.19,0,0,0,12.54,7.85,36.49,36.49,0,0,0,14.62,2.31,39.69,39.69,0,0,0,15.13-3.8,41.15,41.15,0,0,0,14-10.55,40.24,40.24,0,0,0,8.24-17.1l1-4.06-13.12-3.39a4.27,4.27,0,0,0-3.46.61,4.21,4.21,0,0,0-1.83,3,22,22,0,0,1-3.5,9,19.37,19.37,0,0,1-8.51,7.06,18.67,18.67,0,0,1-7.45,1.83,20.14,20.14,0,0,1-14-5,23.84,23.84,0,0,1-2.52-2.52l45.55-21.22A4.28,4.28,0,0,0,563.69,235.73Zm-54.27,12.16a14,14,0,0,1-.07-1.93,19.67,19.67,0,0,1,1.44-6.86,20.66,20.66,0,0,1,3.94-6.17,18.21,18.21,0,0,1,5.88-4.34c5.12-2.39,9.56-2.8,13.56-1.26a15.56,15.56,0,0,1,7.19,5.68Z" transform="translate(-77.7 -179.27)"/><path class="cls-1" d="M264.83,281.53c-0.27-1.72-.52-3.94-0.74-6.58s-0.34-5.21-.34-7.65V237.65a29.73,29.73,0,0,0-2.37-12.25,25.78,25.78,0,0,0-6.29-8.72,25.32,25.32,0,0,0-9.28-5.2,34.8,34.8,0,0,0-10.58-1.62c-13.61,0-24.09,3.68-31.13,10.94l-2.7,2.78,2.51,2.94h0l5.68,6.66s0,0,0,0a4.26,4.26,0,0,0,6.08.39,25,25,0,0,1,17.44-6.7c8.05,0,11.95,3.13,12.65,10.36h-0.31c-4,0-8.57.2-13.46,0.58a56.39,56.39,0,0,0-14.58,3.07,30,30,0,0,0-12.21,8c-3.51,3.86-5.29,9.1-5.29,15.55a22,22,0,0,0,2.41,10.43,23,23,0,0,0,6.25,7.47,26.09,26.09,0,0,0,8.72,4.41,34.5,34.5,0,0,0,9.71,1.38,33.85,33.85,0,0,0,15.65-3.38,25.21,25.21,0,0,0,4.5-3c0.06,0.4.13,0.79,0.19,1.17a4.26,4.26,0,0,0,4.19,3.52H265.6Zm-19-27.56a23.81,23.81,0,0,1-1,7.05,14,14,0,0,1-2.89,5.25,14.16,14.16,0,0,1-4.87,3.54,17.27,17.27,0,0,1-7.11,1.32,20.65,20.65,0,0,1-4.65-.53,11.19,11.19,0,0,1-3.66-1.54,7.06,7.06,0,0,1-2.26-2.39,6.86,6.86,0,0,1-.78-3.48,5.3,5.3,0,0,1,1.91-4.51,18.15,18.15,0,0,1,6.8-3.37,46.6,46.6,0,0,1,9.37-1.56c3.45-.23,6.34-0.35,8.58-0.35h0.57V254Z" transform="translate(-77.7 -179.27)"/><path class="cls-1" d="M334.12,269l-1.65-1.26-6-4.56a4.27,4.27,0,0,0-6.13,1.06,15.86,15.86,0,0,1-5.34,4.92,14.92,14.92,0,0,1-7.81,2h-0.68a19.88,19.88,0,0,1-8-1.51,18.27,18.27,0,0,1-6.43-4.51,19.75,19.75,0,0,1-4.07-7,29.4,29.4,0,0,1,0-18.34,19.85,19.85,0,0,1,4.07-7,18.48,18.48,0,0,1,6.43-4.51,20,20,0,0,1,8-1.5h0.75a14.67,14.67,0,0,1,7.7,2,15.85,15.85,0,0,1,5.34,4.9l2.5,3.82,3.64-2.76,2.94-2.23,4.72-3.59a4.25,4.25,0,0,0,.66-6.15,36,36,0,0,0-12.72-9.71,38.12,38.12,0,0,0-14.71-3.28h-0.87a41.17,41.17,0,0,0-15.4,2.8,36.66,36.66,0,0,0-12.57,8.27,35.59,35.59,0,0,0-8,12.63,46,46,0,0,0,0,30.92,35.45,35.45,0,0,0,8,12.63,36.54,36.54,0,0,0,12.57,8.26,41,41,0,0,0,15.4,2.8h0.89a38.08,38.08,0,0,0,14.68-3.27,35.81,35.81,0,0,0,12.72-9.7l2.92-3.43Z" transform="translate(-77.7 -179.27)"/><path class="cls-1" d="M391.54,281.28h0l-0.26-5.1-0.17-3.55-0.33-6.7-5.92,3.16a19.07,19.07,0,0,1-3.82,1.5,14.64,14.64,0,0,1-3.54.55,10.2,10.2,0,0,1-3-.33,2.54,2.54,0,0,1-1.2-.68,4.47,4.47,0,0,1-.92-1.85,16.51,16.51,0,0,1-.53-4.79v-34.9H391V215.82a4.26,4.26,0,0,0-4.26-4.26h-14.9V197.09a4.25,4.25,0,0,0-4.25-4.25H354v18.72h-14v12.77a4.25,4.25,0,0,0,4.25,4.26H354v37.59a25.51,25.51,0,0,0,1.94,10.7,19.08,19.08,0,0,0,5.14,6.9,17.42,17.42,0,0,0,7,3.55,28,28,0,0,0,6.62.83,34.4,34.4,0,0,0,14.4-2.8l2.61-1.2Z" transform="translate(-77.7 -179.27)"/><path class="cls-2" d="M409.14,201.34a11.15,11.15,0,0,0,7.53-3,10.95,10.95,0,0,0,0-16.12,11.09,11.09,0,0,0-15.06,0,11,11,0,0,0,0,16.12A11.17,11.17,0,0,0,409.14,201.34Z" transform="translate(-77.7 -179.27)"/><path class="cls-1" d="M413.82,211.56H400.2v70.64a4.25,4.25,0,0,0,4.25,4.26h13.62V215.82A4.26,4.26,0,0,0,413.82,211.56Z" transform="translate(-77.7 -179.27)"/><path class="cls-1" d="M496.07,213.43a4.29,4.29,0,0,0-3.54-1.87H479l-1,2.74s0,0,0,0l-17.31,45.77L443.18,214.3a4.26,4.26,0,0,0-4-2.74H421.82l2.37,5.85,27,66.4a4.27,4.27,0,0,0,3.94,2.65h13.36l1.08-2.65,26.95-66.38h0A4.26,4.26,0,0,0,496.07,213.43Z" transform="translate(-77.7 -179.27)"/></svg>