<?xml version="1.0" encoding="utf-8"?>
<!-- Generator: Adobe Illustrator 21.0.2, SVG Export Plug-In . SVG Version: 6.00 Build 0)  -->
<svg version="1.1" id="レイヤー_1" xmlns="http://www.w3.org/2000/svg" xmlns:xlink="http://www.w3.org/1999/xlink" x="0px"
	 y="0px" viewBox="0 0 84 85" style="enable-background:new 0 0 84 85;" xml:space="preserve">
<style type="text/css">
	.st0{filter:url(#Adobe_OpacityMaskFilter);}
	.st1{fill:#FFFFFF;}
	.st2{filter:url(#Adobe_OpacityMaskFilter_1_);}
	.st3{filter:url(#Adobe_OpacityMaskFilter_2_);}
	.st4{fill:#3F3F3F;}
</style>
<title>Page 1 Copy</title>
<desc>Created with Sketch.</desc>
<g id="Page-1_1_">
	<g id="Page-1-Copy_1_">
		<g id="Group-7_1_" transform="translate(69.846613, 71.371737)">
			<g id="Clip-6_1_">
			</g>
			<defs>
				<filter id="Adobe_OpacityMaskFilter" filterUnits="userSpaceOnUse">
					<feColorMatrix  type="matrix" values="1 0 0 0 0  0 1 0 0 0  0 0 1 0 0  0 0 0 1 0"/>
				</filter>
			</defs>
			<mask maskUnits="userSpaceOnUse" id="mask-2_1_">
				<g class="st0">
					<polygon id="path-1_1_" class="st1" points="13.4,13.3 13.4,0 0.1,0 0.1,13.3 					"/>
				</g>
			</mask>
		</g>
		<g id="Group-12_1_" transform="translate(31.990815, 71.371737)">
			<g id="Clip-11_1_">
			</g>
			<defs>
				<filter id="Adobe_OpacityMaskFilter_1_" filterUnits="userSpaceOnUse">
					<feColorMatrix  type="matrix" values="1 0 0 0 0  0 1 0 0 0  0 0 1 0 0  0 0 0 1 0"/>
				</filter>
			</defs>
			<mask maskUnits="userSpaceOnUse" id="mask-4_1_">
				<g class="st2">
					<polygon id="path-3_1_" class="st1" points="0.1,13.4 12,13.4 12,0.1 0.1,0.1 					"/>
				</g>
			</mask>
		</g>
		<g id="Group-23_1_" transform="translate(9.774971, 0.049514)">
			<g id="Clip-22_1_">
			</g>
			<defs>
				<filter id="Adobe_OpacityMaskFilter_2_" filterUnits="userSpaceOnUse">
					<feColorMatrix  type="matrix" values="1 0 0 0 0  0 1 0 0 0  0 0 1 0 0  0 0 0 1 0"/>
				</filter>
			</defs>
			<mask maskUnits="userSpaceOnUse" id="mask-6_1_">
				<g class="st3">
					<polygon id="path-5_1_" class="st1" points="60.1,0.1 0.1,0.1 0.1,59.8 60.1,59.8 					"/>
				</g>
			</mask>
		</g>
	</g>
</g>
<g id="レイヤー_2_3_">
	<g id="レイヤー_2-2_3_">
		<rect x="-0.3" y="0.2" class="st4" width="84.6" height="84.6"/>
		<path class="st1" d="M10.2,35.7h15.9v-1.1H10.2V35.7z M11.3,66.3h-1.1v7.9h8.1v-1.1h-7V66.3z M18.2,50.4h7.8v-1.1h-7.8L18.2,50.4z
			 M14.1,59.5h7.7v6.8h1.1v-7.9h-8.8V59.5z M48.8,50.4h1.1V34.6h-1.1V50.4z M41.9,26.7c4.4,0,7.9-3.5,7.9-7.9s-3.5-7.9-7.9-7.9
			S34,14.4,34,18.8S37.6,26.7,41.9,26.7L41.9,26.7z M41.9,12c3.7,0,6.8,3,6.8,6.8c0,3.7-3,6.8-6.8,6.8c-3.7,0-6.8-3-6.8-6.8
			C35.2,15,38.2,12,41.9,12L41.9,12z M18.2,26.7c3.7,0,7-2.6,7.8-6.3h-1.2c-0.9,3.6-4.6,5.9-8.3,4.9s-5.9-4.6-4.9-8.3
			s4.6-5.9,8.3-4.9c2.4,0.6,4.3,2.5,4.9,4.9h1.1c-0.9-4.3-5.1-7-9.4-6.1s-7,5.1-6.1,9.4C11.2,24.1,14.4,26.7,18.2,26.7L18.2,26.7z
			 M18.2,42h-8.1v1.1h8.1L18.2,42z M67.4,73c-2.5,0-4.7-2.1-5.3-5H61c0.7,3.5,3.3,6.2,6.4,6.2s5.7-2.6,6.4-6.2h-1.1
			C72.1,70.9,70,73,67.4,73z M66.4,50.4v-7.9h-1.1v7.9H66.4z M73.8,34.6H57.9v1.1h15.9V34.6z M67.4,59.5c2.6,0,4.7,2.2,5.3,5.1h1.1
			c-0.6-3.6-3.3-6.3-6.4-6.3s-5.8,2.7-6.4,6.3h1.1C62.7,61.7,64.9,59.5,67.4,59.5z M66.4,66.4l2.4,1.3l0.5-1l-2.4-1.3L66.4,66.4z
			 M65.8,26.7c4.4,0,7.9-3.6,7.9-7.9s-3.6-7.9-7.9-7.9s-7.9,3.6-7.9,7.9S61.4,26.7,65.8,26.7L65.8,26.7z M65.8,11.9
			c3.6,0,6.5,2.8,6.8,6.4h-5.1v1.1h5.1c-0.4,3.7-3.7,6.5-7.4,6.1c-3.7-0.4-6.5-3.7-6.1-7.4C59.4,14.6,62.3,11.9,65.8,11.9L65.8,11.9
			z M34,34.6v11.9h1.1V36l6.4,6.9l0.8-0.8l-7-7.5L34,34.6z M26.4,74.2h14.4l-7.2-15.8L26.4,74.2z M28.1,73l5.5-12l5.5,12H28.1z
			 M57.7,58.4H45v2.9h1.1v-1.8h9.4l-4.9,6.8l4.9,6.8h-9.5v-1.8H45v2.9h12.8l-5.8-7.9L57.7,58.4z"/>
	</g>
</g>
</svg>
