<?xml version="1.0" encoding="UTF-8" standalone="no"?>
<svg width="84px" height="85px" viewBox="0 0 84 85" version="1.1" xmlns="http://www.w3.org/2000/svg" xmlns:xlink="http://www.w3.org/1999/xlink">
    <!-- Generator: Sketch 3.7 (28169) - http://www.bohemiancoding.com/sketch -->
    <title>Page 1 Copy</title>
    <desc>Created with Sketch.</desc>
    <defs>
        <polygon id="path-1" points="13.4388083 13.3118581 13.4388083 0.0367668565 0.130990505 0.0367668565 0.130990505 13.3118581 13.4388083 13.3118581"></polygon>
        <polygon id="path-3" points="0.148650654 13.4064327 11.9534392 13.4064327 11.9534392 0.093755653 0.148650654 0.093755653"></polygon>
        <polygon id="path-5" points="60.076476 0.129238012 0.0569081056 0.129238012 0.0569081056 59.8486038 60.076476 59.8486038 60.076476 0.129238012"></polygon>
    </defs>
    <g id="Page-1" stroke="none" stroke-width="1" fill="none" fill-rule="evenodd">
        <g id="Page-1-Copy">
            <path d="M7.30798181,71.6395435 C6.90951844,71.524427 6.44760661,71.4661537 5.9359313,71.4661537 C5.36276253,71.4661537 4.83615816,71.5492736 4.36944772,71.711402 C3.90789134,71.8722792 3.49449892,72.091966 3.13940087,72.3615246 C3.09656873,72.3938788 3.05267022,72.4278418 3.01037125,72.463056 C3.00237355,72.0706944 2.68335403,71.7564476 2.29217745,71.7564476 L0.734047026,71.7564476 L3.55453503e-05,71.7564476 L0.0146091389,72.4946952 C0.0307822732,73.3224977 0.0506876693,73.9951432 0.074503054,74.515134 C0.0979629851,75.0190371 0.110581584,75.5190077 0.110581584,76.0007455 L0.110581584,83.7639638 C0.110581584,84.1632968 0.43191155,84.4875537 0.828775385,84.4875537 L2.41232073,84.4875537 L3.13140317,84.4875537 L3.13140317,83.7639638 L3.13140317,77.3984108 C3.13140317,77.0922079 3.18774255,76.7606221 3.29882177,76.4177749 C3.40652418,76.0849379 3.57963003,75.7687248 3.81280753,75.4746771 C4.03958687,75.1877794 4.31986195,74.9575463 4.66838411,74.7687837 C4.99397952,74.5943213 5.4031065,74.5047664 5.88758962,74.5047664 C6.30826884,74.5047664 6.48492923,74.5564258 6.54180179,74.5780549 L7.33748445,74.8846153 L7.81628032,72.47682 C7.88879284,72.1078749 7.66841166,71.7430412 7.30798181,71.6395435" id="Fill-1" fill="#858789"></path>
            <path d="M10.2173687,77.9329342 C10.2068828,77.8256827 10.2038615,77.7166438 10.2068828,77.6043872 C10.2173687,77.2066631 10.2994785,76.8151952 10.4510794,76.4387426 C10.601614,76.0628262 10.824661,75.7101477 11.1166661,75.3898233 C11.4047611,75.0720015 11.7291125,74.8287194 12.1083814,74.6519332 C12.9751547,74.2449139 13.7248062,74.1766305 14.4008787,74.4368941 C14.8887386,74.6263716 15.2898679,74.943121 15.6154633,75.4017997 L10.2173687,77.9329342 Z M19.3912682,75.8654835 L19.0877109,75.2105346 C18.7303024,74.4402904 18.2657246,73.7596011 17.7060631,73.1859845 C17.1368043,72.6018215 16.4875685,72.1527954 15.7770169,71.8515976 C15.063444,71.5486122 14.278425,71.3986389 13.4457752,71.4090065 C12.6077935,71.4184804 11.750262,71.6279783 10.8929081,72.0283837 C10.0826518,72.4091264 9.38845116,72.9221459 8.82701235,73.5561808 C8.26752854,74.1873557 7.84773796,74.9048679 7.57670466,75.6901274 C7.30638227,76.4737781 7.19423669,77.3108757 7.2427561,78.1812213 C7.29109777,79.0470981 7.51556666,79.91941 7.91136413,80.7718804 C8.30787251,81.6273896 8.83163325,82.3606321 9.46985001,82.9510514 C10.1052231,83.5405769 10.8180851,83.9887093 11.5874642,84.2854383 C12.3609311,84.5821673 13.19287,84.7142654 14.0587547,84.6776212 C14.9205517,84.6409769 15.7798606,84.4232564 16.6165981,84.0312523 C17.5455758,83.5958114 18.3421471,82.9919857 18.9842739,82.2371141 C19.6331543,81.4734837 20.1018197,80.4957079 20.3765853,79.330957 L20.539383,78.6411514 L18.324019,78.0657473 C18.1228323,78.0144453 17.9099157,78.0514471 17.7382316,78.1685299 C17.5674362,78.284719 17.4542243,78.4708003 17.429698,78.6781531 C17.3694486,79.1684711 17.1702169,79.6823843 16.8387566,80.208274 C16.5179598,80.7123558 16.0476948,81.105075 15.4011249,81.4089541 C14.9859552,81.603973 14.5617214,81.7089007 14.1408645,81.7198046 C13.7088107,81.731781 13.2879538,81.6661788 12.88718,81.5255007 C12.4899607,81.38375 12.1146018,81.1633482 11.7724778,80.8653679 C11.6196328,80.7343424 11.47834,80.5918767 11.3466445,80.4363621 L19.0434569,76.8286017 C19.4031758,76.6584293 19.5597531,76.227636 19.3912682,75.8654835 L19.3912682,75.8654835 Z" id="Fill-3" fill="#858789"></path>
            <g id="Group-7" transform="translate(69.846613, 71.371737)">
                <mask id="mask-2" fill="white">
                    <use xlink:href="#path-1"></use>
                </mask>
                <g id="Clip-6"></g>
                <path d="M3.11796703,6.56119756 C3.10605933,6.4539461 3.10303798,6.34490712 3.10605933,6.23265058 C3.11654521,5.83492641 3.19829952,5.44345858 3.34936726,5.06700595 C3.50079045,4.69108957 3.72383752,4.33841101 4.01477621,4.01808665 C4.30411536,3.70026481 4.62811123,3.45698275 5.00826875,3.28019659 C5.87415348,2.87317729 6.62469355,2.80489386 7.29952202,3.06515741 C7.78755968,3.25463499 8.18904441,3.57138431 8.51499527,4.03006306 L3.11796703,6.56119756 Z M12.2908001,4.49374688 L11.985821,3.83879795 C11.6285902,3.0685537 11.1638348,2.38786442 10.604351,1.81424786 C10.0354476,1.23008489 9.38638953,0.781058772 8.67654889,0.479860916 C7.96208735,0.176875536 7.17831238,0.0269022417 6.3453071,0.037269883 C5.50839183,0.0467437622 4.6485498,0.256241618 3.79137369,0.656647076 C2.98236152,1.03738977 2.28691674,1.55040926 1.72601111,2.18444415 C1.16563867,2.81561901 0.746736716,3.53313129 0.476236602,4.31839074 C0.206625121,5.10204142 0.0930577268,5.93913908 0.14211031,6.8094847 C0.189385626,7.6753615 0.414387692,8.54767339 0.809829713,9.40014376 C1.20580491,10.2556529 1.73027656,10.9888954 2.36796014,11.5793147 C3.00439963,12.1688403 3.71726163,12.6169726 4.48717392,12.9137017 C5.26010755,13.2104307 6.0922242,13.3425288 6.95828666,13.3058845 C7.81937277,13.2692403 8.68010342,13.0515198 9.51613006,12.6595157 C10.4447523,12.2240748 11.2409682,11.620249 11.8834504,10.8653775 C12.5328639,10.1017471 13.0002853,9.12397125 13.2754063,7.95922037 L13.4389149,7.26941472 L11.2221291,6.69401062 C11.0209425,6.64270867 10.8082035,6.67971043 10.6374081,6.79679327 C10.4657241,6.91298236 10.3532231,7.09906365 10.3286968,7.30641647 C10.2680919,7.79673441 10.0701043,8.31064766 9.73757759,8.83653733 C9.41784716,9.3406192 8.947049,9.7333383 8.29923499,10.0372174 C7.88530939,10.2322364 7.46160882,10.337164 7.03968551,10.3480679 C6.60852041,10.3600443 6.18606393,10.2944422 5.78635646,10.153764 C5.38913718,10.0120134 5.01466691,9.7916116 4.67076565,9.49363129 C4.51952018,9.36260575 4.37787196,9.22014006 4.24493235,9.06462544 L11.9426334,5.45686501 C12.3019969,5.28669269 12.4573301,4.85589932 12.2908001,4.49374688 L12.2908001,4.49374688 Z" id="Fill-5" fill="#858789" mask="url(#mask-2)"></path>
            </g>
            <path d="M28.4225419,78.9650865 C28.4225419,79.3894448 28.3649584,79.7912803 28.2505024,80.1636216 C28.1445772,80.5105801 27.9846231,80.8017678 27.762287,81.0561325 C27.5401285,81.3094247 27.2714057,81.5062312 26.9392344,81.6585282 C26.6122172,81.807429 26.2078888,81.8835776 25.7378016,81.8835776 C25.4740551,81.8835776 25.2103086,81.8530109 24.952427,81.7931288 C24.7224486,81.7395031 24.520551,81.6545957 24.333938,81.5321503 C24.1718512,81.424005 24.0467315,81.2908345 23.95147,81.1249522 C23.8626066,80.9699739 23.8199522,80.7762062 23.8199522,80.5334604 C23.8199522,80.1870382 23.9196569,79.9507275 24.1434149,79.7673275 C24.4544367,79.5117115 24.8409924,79.3175863 25.2927738,79.1944259 C25.7976955,79.054284 26.3315866,78.9641928 26.8766746,78.9287998 C27.4597961,78.8898318 27.9480114,78.8696327 28.3269249,78.8696327 L28.4225419,78.8696327 L28.4225419,78.9650865 Z M31.6260665,83.6507242 C31.5803908,83.3579277 31.5384473,82.9812963 31.5007692,82.5329852 C31.4625579,82.0857466 31.4437189,81.6479819 31.4437189,81.2322037 L31.4437189,76.1926362 C31.4437189,75.4034442 31.3093575,74.7036284 31.043656,74.1096341 C30.7783099,73.5201086 30.4207237,73.0212105 29.9803168,72.6268826 C29.5384881,72.2313035 29.0106397,71.9324294 28.4117005,71.7420581 C27.8387095,71.5586581 27.2379931,71.4662431 26.6241249,71.4662431 C24.3239853,71.4662431 22.5531159,72.0918766 21.362169,73.3258047 L20.9059444,73.7991411 L21.3300004,74.2983967 L21.3303559,74.2991117 L22.2897249,75.4315084 C22.2897249,75.4334746 22.290969,75.4334746 22.290969,75.4334746 C22.4178659,75.5820179 22.5968367,75.6708579 22.7898479,75.6840856 C22.9819706,75.6955257 23.1737377,75.6311748 23.318585,75.4999705 C24.1652753,74.7334801 25.1281988,74.3604238 26.2660055,74.3604238 C27.6266815,74.3604238 28.2851591,74.8922123 28.4037028,76.1207778 L28.3510957,76.1207778 C27.6675586,76.1207778 26.9020895,76.1550982 26.0767265,76.2196279 C25.2103086,76.2891626 24.3810355,76.4643399 23.6129005,76.7419425 C22.7923361,77.0395653 22.09778,77.498244 21.5491375,78.1063598 C20.9557079,78.7630963 20.6558828,79.6527472 20.6558828,80.7499296 C20.6558828,81.4129224 20.7925547,82.0101343 21.0632326,82.5233325 C21.3260904,83.0229456 21.6817217,83.4510577 22.1196404,83.7926536 C22.5495614,84.1281719 23.0452413,84.3816429 23.5933506,84.5428776 C24.1208436,84.6982134 24.672152,84.7768645 25.2348349,84.7768645 C26.255875,84.7768645 27.145042,84.5838119 27.8804753,84.2016392 C28.1465322,84.0622123 28.3999706,83.8916824 28.640968,83.6896922 C28.6516316,83.7572606 28.6621175,83.8239353 28.6733143,83.8893587 C28.7342746,84.2345296 29.0328555,84.4876431 29.3815554,84.4876431 L30.9165814,84.4876431 L31.7579398,84.4876431 L31.6260665,83.6507242 Z" id="Fill-8" fill="#858789"></path>
            <g id="Group-12" transform="translate(31.990815, 71.371737)">
                <mask id="mask-4" fill="white">
                    <use xlink:href="#path-3"></use>
                </mask>
                <g id="Clip-11"></g>
                <path d="M11.3472132,10.153049 L11.0681822,9.93908236 L10.0526516,9.16347554 C9.89465249,9.04174513 9.69222172,8.99240945 9.49565594,9.02762368 C9.29891242,9.06158665 9.12527339,9.17473694 9.01597144,9.34294298 C8.80696478,9.66737865 8.50269658,9.94676871 8.11347499,10.1789681 C7.73491701,10.4024087 7.30997235,10.5118052 6.79438705,10.5118052 L6.68028648,10.5141289 C6.17909704,10.5141289 5.72696018,10.4279703 5.33631679,10.2572617 C4.90461851,10.0726104 4.55094227,9.8212845 4.2488068,9.4913075 C3.95075904,9.16651433 3.71882563,8.76771764 3.56011564,8.30939639 C3.3964293,7.83266365 3.31218682,7.3085615 3.31218682,6.7508539 C3.31218682,6.19207378 3.3964293,5.66779288 3.56011564,5.19141764 C3.71882563,4.73309639 3.95075904,4.33572973 4.2488068,4.00914903 C4.55094227,3.67935078 4.90675123,3.42927612 5.33631679,3.24319483 C5.72696018,3.07248626 6.18176294,2.98829386 6.68544055,2.98829386 L6.81215972,2.98865136 C7.30890599,2.98865136 7.73420611,3.09715409 8.11347499,3.32309717 C8.50269658,3.55350906 8.80696478,3.83468665 9.01597144,4.15697729 L9.43789474,4.80566988 L10.0526516,4.33662349 L10.5493978,3.95731082 L11.3472132,3.34776501 C11.5045014,3.22764337 11.6058056,3.04781842 11.6274883,2.85011823 C11.6486378,2.65045175 11.5882107,2.45310906 11.4593588,2.30224201 C10.8325166,1.56470945 10.1091687,1.00807437 9.31028693,0.651284503 C8.52331288,0.300750975 7.68888579,0.113060916 6.82477832,0.0944706628 L6.67762057,0.093755653 C5.73264744,0.093755653 4.85698774,0.253739084 4.07463458,0.569773392 C3.24980473,0.903325439 2.53569865,1.37594688 1.94955582,1.97476754 C1.3607471,2.57626949 0.907543881,3.29753558 0.601320689,4.12176306 C0.301140207,4.93026033 0.148650654,5.81562115 0.148650654,6.7508539 C0.148650654,7.68715916 0.301140207,8.57037495 0.601320689,9.37815721 C0.906832974,10.2030997 1.3607471,10.9256171 1.94955582,11.525689 C2.53640955,12.1255822 3.251582,12.5985611 4.07463458,12.9301469 C4.85574365,13.247075 5.72998154,13.4065221 6.67762057,13.4065221 L6.82868831,13.4050921 C7.68728625,13.3865019 8.52224652,13.1997056 9.31028693,12.848457 C10.1091687,12.4927397 10.8325166,11.9386071 11.4593588,11.1996445 L11.9534392,10.6167328 L11.3472132,10.153049 Z" id="Fill-10" fill="#858789" mask="url(#mask-4)"></path>
            </g>
            <path d="M53.0431175,83.6081811 L53.0431175,83.6081811 L52.9997522,82.741053 L52.9713159,82.1379423 L52.915332,80.9985742 L51.9141972,81.5353678 C51.7226078,81.6383292 51.5050702,81.7228791 51.2681605,81.7897325 C51.0627083,81.8476483 50.8588558,81.8776787 50.6692213,81.8826838 C50.4802978,81.8869739 50.304526,81.8682049 50.1586124,81.8256618 C50.0765026,81.8036752 50.0119878,81.7668522 49.9560039,81.7101877 C49.9234799,81.6762247 49.859676,81.5923898 49.8012039,81.3954047 C49.7594381,81.2615191 49.7110964,81.0112657 49.7110964,80.5817236 L49.7110964,74.6500027 L52.2285958,74.6500027 L52.9480337,74.6500027 L52.9480337,73.9265916 L52.9480337,72.4803056 C52.9480337,72.0809727 52.6254597,71.7563583 52.2285958,71.7563583 L49.7110964,71.7563583 L49.7110964,69.296546 C49.7110964,68.897213 49.3897664,68.5740286 48.9925471,68.5740286 L47.4100682,68.5740286 L46.6915189,68.5740286 L46.6915189,69.296546 L46.6915189,71.7563583 L45.0368828,71.7563583 L44.318689,71.7563583 L44.318689,72.4803056 L44.318689,73.9265916 C44.318689,74.3250308 44.6393081,74.6500027 45.0368828,74.6500027 L46.6915189,74.6500027 L46.6915189,81.0398661 C46.6915189,81.7791861 46.7986881,82.3746105 47.0196025,82.8592084 C47.2401614,83.3438062 47.5321664,83.7372403 47.8876199,84.0320031 C48.2423625,84.3271234 48.6415368,84.5289349 49.0727019,84.6349351 C49.4546367,84.7289588 49.8305288,84.7768645 50.1909586,84.7768645 C51.1215359,84.7768645 51.940323,84.6167023 52.6243933,84.3008468 L53.066222,84.0968902 L53.0431175,83.6081811 Z" id="Fill-13" fill="#858789"></path>
            <path d="M56.0163617,70.0202431 C56.4786289,70.0202431 56.9199245,69.8438144 57.2892406,69.5086536 C57.6807727,69.15383 57.8869357,68.6797786 57.8869357,68.1395887 C57.8869357,67.5979688 57.6807727,67.1246324 57.2885297,66.7685575 C56.5502528,66.1025259 55.48407,66.1007384 54.7434827,66.7705238 C54.3523061,67.1246324 54.1464985,67.5979688 54.1464985,68.1395887 C54.1464985,68.6797786 54.3523061,69.15383 54.744549,69.5102624 C55.1138652,69.8438144 55.5537389,70.0202431 56.0163617,70.0202431" id="Fill-15" fill="#858789"></path>
            <path d="M56.8080099,71.7563761 L55.2246423,71.7563761 L54.5062708,71.7563761 L54.5062708,72.4803235 L54.5062708,83.7638923 C54.5062708,84.163404 54.8272453,84.4874822 55.2246423,84.4874822 L56.8080099,84.4874822 L57.5274478,84.4874822 L57.5274478,83.7638923 L57.5274478,72.4803235 C57.5274478,72.0809906 57.2043406,71.7563761 56.8080099,71.7563761" id="Fill-17" fill="#858789"></path>
            <path d="M70.7101341,72.0749309 C70.5761281,71.8765157 70.3513037,71.756394 70.1120835,71.756394 L68.3143775,71.756394 L67.8183421,71.756394 L67.6432812,72.2227591 C67.6432812,72.2227591 67.6425703,72.2227591 67.6425703,72.2243679 L64.7170103,80.0056402 L61.770123,72.2224016 C61.6636647,71.9421178 61.3968969,71.756394 61.0986714,71.756394 L59.2291637,71.756394 L58.1608482,71.756394 L58.561622,72.7506151 L63.1174695,84.0372227 C63.2280156,84.3082114 63.4914066,84.4875001 63.7839448,84.4875001 L65.558191,84.4875001 L66.0421409,84.4875001 L66.2244886,84.0372227 L70.7789143,72.7527601 L70.7789143,72.7506151 C70.8690218,72.5286045 70.8432514,72.2749548 70.7101341,72.0749309" id="Fill-19" fill="#858789"></path>
            <g id="Group-23" transform="translate(9.774971, 0.049514)">
                <mask id="mask-6" fill="white">
                    <use xlink:href="#path-5"></use>
                </mask>
                <g id="Clip-22"></g>
                <path d="M39.5447708,25.9660795 C42.1113228,24.0809563 43.6692755,21.7652184 43.6692755,18.6601099 C43.6692755,15.0939988 41.4869687,12.0423372 38.392746,10.7773062 C37.4100948,10.3756494 36.3362698,10.1527451 35.2107262,10.1527451 C30.5397118,10.1527451 26.7525324,13.9614233 26.7525324,18.6601099 C26.7525324,21.7242841 28.319016,24.0809563 30.7798206,25.9067336 C32.8389628,27.4352457 33.5628438,28.4321481 33.5628438,29.9892605 C33.5628438,31.5511993 32.9020558,32.5963648 30.7840861,34.0608835 C28.319016,35.7640368 26.7525324,38.2472656 26.7525324,41.3176962 C26.7525324,44.9867687 29.0615584,48.1127913 32.2970739,49.3068576 C33.2054353,49.6414822 34.1870202,49.8254184 35.2107262,49.8254184 C39.8828071,49.8254184 43.6692755,46.0158465 43.6692755,41.3176962 C43.6692755,38.2165202 42.1113228,35.7640368 39.5559676,34.017983 C37.5227735,32.6283615 36.8456346,31.5511993 36.8456346,29.9892605 C36.8456346,28.4321481 37.5664943,27.419158 39.5447708,25.9660795 M52.3883722,22.2557151 C48.1415915,22.2557151 44.699202,25.7174348 44.699202,29.9892605 C44.699202,34.25912 48.1415915,37.722091 52.3883722,37.722091 C56.6346197,37.722091 60.076476,34.25912 60.076476,29.9892605 C60.076476,25.7174348 56.6346197,22.2557151 52.3883722,22.2557151 M18.8085021,21.8075828 C22.0226904,19.2337264 23.8076002,16.0905436 23.8076002,12.0734401 C23.8076002,7.83021474 21.6059212,4.10608647 18.2906064,1.9878701 C16.4509568,0.812572827 14.2722045,0.129202261 11.9322541,0.129202261 C5.3732484,0.129202261 0.0569081056,5.4762239 0.0569081056,12.0734401 C0.0569081056,16.0905436 1.7922321,19.2219288 5.05600615,21.8075828 C8.31942475,24.3948455 9.45740914,26.6805529 9.45740914,29.9892605 C9.45740914,33.2988619 8.31942475,35.5843906 5.05600615,38.1709383 C2.0028383,40.5887438 0.0569081056,43.886905 0.0569081056,47.9040085 C0.0569081056,52.0022656 2.10947435,55.6169974 5.23533245,57.7677467 C7.14198503,59.0799683 9.44816735,59.8486038 11.9322541,59.8486038 C18.4907267,59.8486038 23.8076002,54.5019397 23.8076002,47.9040085 C23.8076002,43.886905 22.0733425,40.7480122 18.8085021,38.1659333 C15.5450835,35.5843906 14.4074546,33.2988619 14.4074546,29.9892605 C14.4074546,26.6805529 15.5937807,24.3823329 18.8085021,21.8075828" id="Fill-21" fill="#858789" mask="url(#mask-6)"></path>
            </g>
        </g>
    </g>
</svg>