<svg id="Text" xmlns="http://www.w3.org/2000/svg" viewBox="0 0 29.93 29.93"><defs><style>.cls-1{fill:#26a69a;}</style></defs><title>Anger</title><path class="cls-1" d="M3726.67,309.17h9v2.25h-9v-2.25Z" transform="translate(-3716.19 -291.21)"/><path class="cls-1" d="M3724.64,300.49l5.17,2.35-1.1,2.42-5.17-2.35Z" transform="translate(-3716.19 -291.21)"/><path class="cls-1" d="M3737.69,300.49l-5.17,2.35,1.1,2.42,5.17-2.35Z" transform="translate(-3716.19 -291.21)"/><path class="cls-1" d="M3731.15,291.21a15,15,0,1,0,15,15A15,15,0,0,0,3731.15,291.21Zm0,26.94a12,12,0,1,1,12-12A12,12,0,0,1,3731.16,318.15Z" transform="translate(-3716.19 -291.21)"/></svg>