<svg id="Text" xmlns="http://www.w3.org/2000/svg" viewBox="0 0 29.09 22.13"><defs><style>.cls-1{fill:#26a69a;}</style></defs><title>Hatwear</title><path class="cls-1" d="M3733.26,605.51c-5.45,0-10.17-.91-13.13-2.59-1,.49-4.23,2.09-5.07,3.11a2.31,2.31,0,0,0-.39,1,3.41,3.41,0,0,0,.23.81c7.2,3,11.23,1.88,15.25,1.09a24.55,24.55,0,0,0,8.17-3.58l0.11-.11C3736.66,605.41,3734.93,605.51,3733.26,605.51Z" transform="translate(-3714.67 -587.69)"/><path class="cls-1" d="M3734.15,588.9h-0.06a1.71,1.71,0,0,0-1.88-1.22,1.68,1.68,0,0,0-1.89,1.28s0,0,0,0c-9.57,1-9.18,7.69-9,11.31a10.88,10.88,0,0,1-.05,1.66c3.9,2.22,11.11,3,19,2.1a31.17,31.17,0,0,1,3.44-2s0.12-3.71,0-4.94C3743.06,590.7,3737.53,589.22,3734.15,588.9Z" transform="translate(-3714.67 -587.69)"/></svg>