<svg id="Text" xmlns="http://www.w3.org/2000/svg" viewBox="0 0 73.15 71.74"><defs><style>.cls-1{fill:#424242;}.cls-2{fill:none;stroke:#9fa8da;stroke-miterlimit:10;}</style></defs><title>face_landmark</title><path class="cls-1" d="M4341.47,1598.08a3.44,3.44,0,1,0,3.44,3.44A3.44,3.44,0,0,0,4341.47,1598.08Zm16.53,0a3.44,3.44,0,1,0,3.44,3.44A3.44,3.44,0,0,0,4358,1598.08Zm-8.26-26.86a27.55,27.55,0,1,0,27.55,27.55A27.56,27.56,0,0,0,4349.74,1571.22Zm0,49.58a22.07,22.07,0,0,1-22-22,22.33,22.33,0,0,1,.14-2.37,27.72,27.72,0,0,0,14.35-14.79,27.47,27.47,0,0,0,22.48,11.65,26.89,26.89,0,0,0,6.2-.72A22,22,0,0,1,4349.74,1620.8Z" transform="translate(-4313.44 -1561.99)"/><polyline class="cls-2" points="0.5 10.82 0.5 0.5 10.35 0.5"/><polyline class="cls-2" points="72.65 10.82 72.65 0.5 62.79 0.5"/><polyline class="cls-2" points="0.5 60.92 0.5 71.24 10.35 71.24"/><polyline class="cls-2" points="72.65 60.92 72.65 71.24 62.79 71.24"/><line class="cls-2" x1="22.19" y1="39.53" x2="33.88" y2="39.53"/><line class="cls-2" x1="28.04" y1="33.69" x2="28.04" y2="45.38"/><line class="cls-2" x1="38.72" y1="39.53" x2="50.41" y2="39.53"/><line class="cls-2" x1="44.57" y1="33.69" x2="44.57" y2="45.38"/></svg>