<svg id="Text" xmlns="http://www.w3.org/2000/svg" viewBox="0 0 30.08 30.7"><defs><style>.cls-1{fill:#9fa8da;}</style></defs><title>Logo_detection</title><path class="cls-1" d="M3849.79,28.13a15.44,15.44,0,0,0-8.7,7.62,15.19,15.19,0,0,0-1.34,3.86,15.36,15.36,0,0,0,11.07,17.86,16.42,16.42,0,0,0,7.85.08,13.54,13.54,0,0,0,10.17-9.64,18,18,0,0,0,.39-8.15H3854.8v6h8.37a7.23,7.23,0,0,1-3.07,4.74,8.79,8.79,0,0,1-3.38,1.34,10.12,10.12,0,0,1-3.66,0,9.09,9.09,0,0,1-3.42-1.48,9.49,9.49,0,0,1-3.51-4.71,9.31,9.31,0,0,1,0-6,9.59,9.59,0,0,1,2.23-3.62,9,9,0,0,1,9.09-2.37,8.26,8.26,0,0,1,3.31,1.95l2.82-2.82c0.5-.5,1-1,1.49-1.51a15,15,0,0,0-4.94-3.06A15.49,15.49,0,0,0,3849.79,28.13Z" transform="translate(-3839.45 -27.29)"/><path class="cls-1" d="M3849.79,28.13a15.54,15.54,0,0,1,10.34.09,14.91,14.91,0,0,1,4.94,3.06c-0.48.52-1,1-1.49,1.51l-2.82,2.82a8.36,8.36,0,0,0-3.31-1.95,9.06,9.06,0,0,0-4.5-.18,9.17,9.17,0,0,0-4.59,2.55,9.52,9.52,0,0,0-2.23,3.62l-5-3.9A15.42,15.42,0,0,1,3849.79,28.13Z" transform="translate(-3839.45 -27.29)"/><path class="cls-1" d="M3839.76,39.6a15.31,15.31,0,0,1,1.34-3.86l5,3.9a9.26,9.26,0,0,0,0,6l-5,3.9A15.27,15.27,0,0,1,3839.76,39.6Z" transform="translate(-3839.45 -27.29)"/><path class="cls-1" d="M3854.8,39.75h14.44a18.15,18.15,0,0,1-.39,8.15,13.94,13.94,0,0,1-3.89,6.37l-4.88-3.79a7.23,7.23,0,0,0,3.07-4.74h-8.37Q3854.81,42.75,3854.8,39.75Z" transform="translate(-3839.45 -27.29)"/><path class="cls-1" d="M3841.09,49.52l5-3.9a9.54,9.54,0,0,0,3.51,4.71,9.14,9.14,0,0,0,3.42,1.48,9.94,9.94,0,0,0,3.66,0,8.79,8.79,0,0,0,3.38-1.34l4.88,3.79a13.85,13.85,0,0,1-6.29,3.27,16.42,16.42,0,0,1-7.85-.08,15.16,15.16,0,0,1-5.58-2.81A15.45,15.45,0,0,1,3841.09,49.52Z" transform="translate(-3839.45 -27.29)"/></svg>