<svg id="Text" xmlns="http://www.w3.org/2000/svg" viewBox="0 0 37.08 37.08"><defs><style>.cls-1{fill:#9fa8da;}</style></defs><title>SafeSearch</title><path class="cls-1" d="M3673.7,32.42a7.14,7.14,0,1,0,7.14,7.14A7.14,7.14,0,0,0,3673.7,32.42Zm-1.43,10.7-3.57-3.57,1-1,2.56,2.55,5.42-5.42,1,1Z" transform="translate(-3659.92 -25.78)"/><path class="cls-1" d="M3686.42,49.1h-1.67l-0.59-.57a13.8,13.8,0,1,0-1.48,1.48l0.57,0.59v1.67l10.6,10.58L3697,59.7Zm-12.72,0a9.54,9.54,0,1,1,9.54-9.54A9.53,9.53,0,0,1,3673.7,49.1Z" transform="translate(-3659.92 -25.78)"/></svg>