<svg id="レイヤー_12" data-name="レイヤー 12" xmlns="http://www.w3.org/2000/svg" viewBox="0 0 4236.92 3219.26"><defs><style>.cls-1,.cls-10,.cls-11,.cls-12,.cls-13,.cls-14,.cls-15,.cls-16,.cls-17,.cls-18,.cls-19,.cls-2,.cls-20,.cls-21,.cls-22,.cls-23,.cls-24,.cls-25,.cls-26,.cls-27,.cls-28,.cls-29,.cls-3,.cls-30,.cls-31,.cls-32,.cls-33,.cls-4,.cls-5,.cls-6,.cls-7,.cls-8,.cls-9{fill:none;}.cls-1{stroke:#4184f9;}.cls-1,.cls-10,.cls-11,.cls-12,.cls-13,.cls-14,.cls-15,.cls-16,.cls-17,.cls-18,.cls-19,.cls-20,.cls-21,.cls-22{stroke-linejoin:round;}.cls-1,.cls-24,.cls-27,.cls-29,.cls-30,.cls-32{stroke-width:2px;}.cls-2,.cls-27{stroke:#d4d4d4;}.cls-2,.cls-23,.cls-24,.cls-25,.cls-26,.cls-27,.cls-28,.cls-29,.cls-3,.cls-30,.cls-31,.cls-32,.cls-33,.cls-4,.cls-5,.cls-6,.cls-7,.cls-8,.cls-9{stroke-miterlimit:10;}.cls-3{stroke:#4b1388;}.cls-4{stroke:#35dbc3;}.cls-5{stroke:#9031ff;stroke-width:1.5px;}.cls-6{stroke:#e5e3da;}.cls-7{stroke:#0099e1;}.cls-8{stroke:#f6ff8e;}.cls-10,.cls-11,.cls-12,.cls-13,.cls-14,.cls-15,.cls-16,.cls-17,.cls-18,.cls-19,.cls-20,.cls-21,.cls-22,.cls-9{stroke:#fff;}.cls-10,.cls-11,.cls-12,.cls-13,.cls-14,.cls-15,.cls-16,.cls-17,.cls-18,.cls-19,.cls-20,.cls-21,.cls-22{stroke-linecap:round;}.cls-10{stroke-dasharray:5 8;}.cls-12{stroke-dasharray:4.95 7.92;}.cls-13{stroke-dasharray:4.95 7.92;}.cls-14{stroke-dasharray:4.95 7.91;}.cls-15{stroke-dasharray:4.95 7.93;}.cls-16{stroke-dasharray:4.95 7.92;}.cls-17{stroke-dasharray:4.96 7.94;}.cls-18{stroke-dasharray:4.96 7.93;}.cls-19{stroke-dasharray:4.95 7.92;}.cls-20{stroke-dasharray:4.95 7.92;}.cls-21{stroke-dasharray:4.95 7.92;}.cls-22{stroke-dasharray:4.95 7.92;}.cls-23,.cls-24{stroke:#9aeaff;}.cls-25{stroke:#968a68;}.cls-26,.cls-30{stroke:#00c892;}.cls-28,.cls-29{stroke:#57b7ff;}.cls-31,.cls-32{stroke:#d6ff33;}.cls-33{stroke:#e4e3d6;}</style></defs><title>Top_graphic</title><polygon class="cls-1" points="1003.63 1351.9 1449.46 1609.3 2118.21 1223.2 1672.38 965.8 1003.63 1351.9"/><line class="cls-1" x1="1672.38" y1="1609.3" x2="1672.38" y2="1351.9"/><line class="cls-1" x1="1672.38" y1="2252.81" x2="1672.24" y2="1994.97"/><polygon class="cls-1" points="1560.92 1673.65 1672.38 1738 1783.84 1673.65 1672.38 1609.3 1560.92 1673.65"/><polygon class="cls-1" points="1672.38 1738 1672.24 1994.97 1783.69 1930.61 1783.84 1673.65 1672.38 1738"/><polygon class="cls-1" points="1560.92 1673.65 1560.92 1931.06 1672.24 1994.97 1672.38 1738 1560.92 1673.65"/><polygon class="cls-1" points="1226.54 1351.9 1226.54 1223.2 1115.09 1158.85 1115.08 1030.15 1003.63 965.8 1226.54 837.1 1338 901.45 1338 1030.15 1449.46 1094.5 1449.46 1223.2 1226.54 1351.9"/><line class="cls-1" x1="1115.09" y1="1158.85" x2="1338" y2="1030.15"/><line class="cls-1" x1="1115.08" y1="1030.15" x2="1338" y2="901.45"/><polygon class="cls-1" points="1003.63 965.8 1003.63 708.39 1115.08 772.75 1115.08 1030.15 1003.63 965.8"/><polygon class="cls-1" points="1003.63 965.8 1783.84 1416.25 2229.67 1158.85 1449.46 708.39 1003.63 965.8"/><polygon class="cls-1" points="2006.75 2317.16 2006.75 2188.46 2118.21 2124.11 2118.21 1995.4 2229.67 1931.06 2229.67 1802.35 2118.21 1738 2118.21 1866.7 2006.75 1931.06 2006.75 2059.76 1895.3 2124.11 1895.15 2252.37 2006.75 2317.16"/><polygon class="cls-1" points="2006.75 1673.65 2341.13 1866.7 2675.5 1673.65 2341.13 1480.6 2006.75 1673.65"/><polygon class="cls-1" points="2341.13 1866.7 2341.13 1609.3 2675.5 1416.25 2675.5 1673.65 2341.13 1866.7"/><polygon class="cls-1" points="2006.75 1673.65 2006.75 1416.25 2341.13 1609.3 2341.13 1866.7 2006.75 1673.65"/><polyline class="cls-1" points="2675.5 1416.25 2341.14 1223.19 2006.75 1416.25 2341.13 1609.3"/><polygon class="cls-1" points="2675.5 1544.95 2898.42 1673.65 2564.05 1866.7 2452.59 1802.35 2675.5 1673.65 2675.5 1544.95"/><line class="cls-1" x1="2118.21" y1="1866.7" x2="2229.67" y2="1931.05"/><line class="cls-1" x1="2006.75" y1="1931.05" x2="2118.21" y2="1995.41"/><line class="cls-1" x1="1895.29" y1="2124.11" x2="2006.75" y2="2188.46"/><polygon class="cls-1" points="2341.14 1351.88 2452.59 1416.25 2452.59 515.34 2341.14 450.99 2341.14 1351.88"/><polygon class="cls-1" points="2229.67 772.74 2341.06 837.05 2452.59 772.74 2341.14 708.39 2229.67 772.74"/><polygon class="cls-1" points="2229.67 1030.15 2341.14 1094.5 2341.06 837.05 2229.67 772.74 2229.67 1030.15"/><polygon class="cls-1" points="2452.59 772.74 2341.06 837.05 2341.14 1094.5 2452.59 1030.12 2452.59 772.74"/><polygon class="cls-1" points="2341.13 1995.4 2452.52 2059.76 2564.05 1995.4 2452.59 1931.06 2341.13 1995.4"/><polygon class="cls-1" points="2341.13 2252.81 2452.59 2317.16 2452.52 2059.76 2341.13 1995.4 2341.13 2252.81"/><polygon class="cls-1" points="2564.05 1995.4 2452.52 2059.76 2452.59 2317.16 2563.91 2252.37 2564.05 1995.4"/><polygon class="cls-1" points="1449.46 708.39 1449.46 579.69 2006.75 901.45 2006.75 1030.15 1449.46 708.39"/><polygon class="cls-1" points="2898.42 1931.06 3121.34 2059.76 3455.71 1866.7 3232.8 1738 2898.42 1931.06"/><polygon class="cls-1" points="3121.34 2188.46 3121.34 2059.76 2898.42 1931.06 2898.42 2059.76 3121.34 2188.46"/><polygon class="cls-1" points="3009.88 2252.81 3121.34 2188.46 2898.42 2059.76 2786.96 2124.11 3009.88 2252.81"/><polygon class="cls-1" points="2786.96 2252.81 3009.88 2381.51 3009.88 2252.81 2786.96 2124.11 2786.96 2252.81"/><polygon class="cls-1" points="3009.88 1866.7 3009.88 1738 3232.8 1609.3 3232.8 1738 3009.88 1866.7"/><polygon class="cls-1" points="3121.34 1544.95 2898.42 1673.65 3009.88 1738 3232.8 1609.3 3121.34 1544.95"/><polygon class="cls-1" points="2898.42 1544.95 3121.34 1416.25 3121.34 1544.95 2898.42 1673.65 2898.42 1544.95"/><polygon class="cls-1" points="2786.96 2252.81 2675.5 2317.16 2898.42 2445.86 3009.88 2381.51 2786.96 2252.81"/><polygon class="cls-1" points="2675.5 2317.16 2675.36 2445.42 2898.28 2574.12 2898.42 2445.86 2675.5 2317.16"/><polygon class="cls-1" points="2341.13 2638.9 2675.5 2445.85 2898.28 2574.12 2563.91 2767.17 2341.13 2638.9"/><polygon class="cls-1" points="2898.42 1544.95 2786.96 1480.6 3009.88 1351.9 3121.34 1416.25 2898.42 1544.95"/><polygon class="cls-1" points="2786.96 1351.9 3009.88 1223.2 3009.88 1351.9 2786.96 1480.6 2786.96 1351.9"/><polygon class="cls-1" points="2452.59 2445.86 2564.05 2510.2 2229.67 2703.26 2118.17 2638.9 2452.59 2445.86"/><polygon class="cls-1" points="2229.3 2445.55 1894.92 2638.61 2006.71 2703.25 2341.09 2510.2 2229.3 2445.55"/><polygon class="cls-1" points="2118.07 2509.77 2006.6 2445.38 1672.38 2638.91 1783.84 2703.26 2118.07 2509.77"/><polygon class="cls-1" points="2675.5 644.04 2675.5 772.74 2786.96 837.1 2786.96 708.39 2675.5 644.04"/><polygon class="cls-1" points="2898.42 772.74 2898.42 901.45 3009.88 965.8 3009.88 837.1 2898.42 772.74"/><polygon class="cls-1" points="3121.2 901 3121.2 1029.7 3232.66 1094.05 3232.66 965.35 3121.2 901"/><line class="cls-1" x1="2675.5" y1="772.74" x2="2675.5" y2="1030.15"/><line class="cls-1" x1="2898.42" y1="901.45" x2="2898.42" y2="1158.85"/><line class="cls-1" x1="3121.2" y1="1029.7" x2="3121.34" y2="1287.55"/><line class="cls-1" x1="2453.33" y1="901.88" x2="3345" y2="1416.68"/><polyline class="cls-1" points="3121.34 2059.76 3121.34 1931.06 3455.71 1738 3455.71 1866.7 3121.34 2059.76"/><line class="cls-1" x1="2452.59" y1="1802.35" x2="2452.59" y2="1931.05"/><line class="cls-1" x1="2452.59" y1="2317.16" x2="2452.59" y2="2445.86"/><polygon class="cls-1" points="1449.46 1609.3 1449.46 1480.6 1895.3 1223.2 1895.3 1351.9 1449.46 1609.3"/><polygon class="cls-2" points="3678.63 322.29 3678.23 965.74 3567.17 1030.15 3567.17 772.65 3344.25 901.68 3344.25 772.74 3232.79 837.12 3232.8 708.38 3121.34 772.65 3121.34 1802.35 3009.87 1866.87 3009.88 2124.1 2898.42 2188.46 2898.42 1673.65 2564.04 1866.7 2564.04 1609.46 2452.58 1673.81 2452.58 1545.11 2341.12 1611 2341.13 1094.49 3678.63 322.29"/><polygon class="cls-3" points="2452.66 1673.01 2564.12 1608.77 2564.17 1222.73 1449.54 579.11 1003.6 836.51 1003.7 1480.15 1449.53 1222.73 1449.54 1094.08 2452.66 1673.01"/><polygon class="cls-4" points="2006.83 772.03 2006.83 643.33 1895.37 579.07 1895.37 707.77 2006.83 772.03"/><polygon class="cls-5" points="2564.01 1093.99 2564.01 707.81 1895.26 321.7 1783.81 386.05 1672.35 321.7 892.14 772.16 892.14 1673.07 1449.43 1994.83 1560.99 1930.49 1003.7 1608.76 1003.6 836.51 1672.45 450.45 1783.91 514.77 1895.37 450.42 2452.66 772.17 2452.66 1028.28 2564.01 1093.99"/><polygon class="cls-6" points="2452.66 1028.28 3121.31 1415.66 3121.31 1673.07 2452.56 2059.18 2006.72 1801.77 1560.89 2059.17 1449.43 1994.83 2006.83 1673.11 2452.66 1930.41 2898.49 1673.03 2898.49 1415.76 2452.66 1158.32 2452.66 1028.28"/><polygon class="cls-7" points="3121.31 1415.66 3009.85 1351.31 3009.85 965.29 2006.83 386.13 2118.18 321.7 3121.31 900.94 3121.31 1415.66"/><polygon class="cls-4" points="1672.35 321.7 2006.72 128.74 3121.31 772.16 3121.31 900.94 2118.18 321.7 2006.83 386.13 1895.26 321.7 1783.81 386.05 1672.35 321.7"/><polygon class="cls-8" points="3009.85 1352.63 3009.85 966.61 2564.01 709.12 2564.17 838 2898.39 1029.61 2898.39 1287.83 3009.85 1352.63"/><polygon class="cls-4" points="2452.66 772.17 1895.37 450.42 1895.37 579.02 2452.66 900.78 2452.66 772.17"/><polygon class="cls-4" points="2452.66 1029.44 2452.66 900.74 2341.2 836.48 2341.2 965.18 2452.66 1029.44"/><polygon class="cls-7" points="2118.29 1093.86 1895.37 1222.47 2006.83 1286.82 2229.74 1158.12 2118.29 1093.86"/><polygon class="cls-8" points="2118.29 965.16 1895.37 1093.86 1895.37 1222.48 2118.29 1093.86 2118.29 965.16"/><polygon class="cls-8" points="1895.37 579.12 1783.91 643.38 1783.91 514.77 1895.37 450.42 1895.37 579.12"/><polygon class="cls-8" points="1560.99 900.72 1449.54 965.21 1449.54 836.45 1560.99 772.11 1560.99 900.72"/><polygon class="cls-7" points="1895.37 707.77 1560.99 900.81 1673.75 965.89 2006.83 772.03 1895.37 707.77"/><polygon class="cls-8" points="2229.74 1029.42 2229.74 900.79 2341.2 836.48 2341.2 965.18 2229.74 1029.42"/><polygon class="cls-7" points="1895.37 1480.1 1449.53 1222.78 1338.08 1287.04 1783.91 1544.45 1895.37 1480.1 1895.37 1480.1"/><polygon class="cls-4" points="1560.99 1415.69 1560.99 1286.99 1449.53 1222.73 1449.53 1351.43 1560.99 1415.69"/><polygon class="cls-7" points="1672.45 1737.53 1449.53 1866.13 1560.99 1930.49 1783.91 1801.78 1672.45 1737.53"/><polygon class="cls-8" points="1672.45 1608.82 1449.53 1737.53 1449.53 1866.15 1672.45 1737.53 1672.45 1608.82"/><polygon class="cls-8" points="1449.53 1222.78 1338.08 1287.04 1338.08 1158.21 1449.54 1094.08 1449.53 1222.78"/><polygon class="cls-4" points="1672.45 1737.52 1115.16 1415.77 1115.16 1544.38 1672.45 1866.13 1672.45 1737.52"/><polygon class="cls-7" points="1449.53 1351.43 1115.16 1544.47 1227.91 1609.55 1560.99 1415.69 1449.53 1351.43"/><polygon class="cls-8" points="1449.53 1222.73 1115.16 1415.77 1115.16 1544.47 1449.53 1351.43 1449.53 1222.73"/><polygon class="cls-7" points="2787.04 1608.77 2564.12 1737.38 2675.58 1801.73 2898.49 1673.03 2787.04 1608.77"/><polygon class="cls-4" points="2898.49 1673.03 2898.49 1544.33 2787.04 1480.07 2787.04 1608.77 2898.49 1673.03"/><polygon class="cls-4" points="2675.58 1801.71 2675.58 1673.01 2564.12 1608.75 2564.12 1737.45 2675.58 1801.71"/><polygon class="cls-8" points="2564.12 1608.75 2341.2 1737.45 2341.2 1866.07 2564.12 1737.45 2564.12 1608.75"/><polygon class="cls-4" points="2564.12 1737.38 2006.83 1416.99 2006.83 1545.6 2564.12 1867.35 2564.12 1737.38"/><polygon class="cls-8" points="2006.83 1544.41 1895.37 1608.67 1895.37 1480.06 2006.83 1415.71 2006.83 1544.41"/><polygon class="cls-7" points="2341.2 1351.47 2006.83 1544.5 2119.58 1609.58 2452.66 1415.73 2341.2 1351.47"/><polygon class="cls-8" points="2341.2 1222.62 2006.83 1415.65 2006.83 1544.36 2341.2 1351.32 2341.2 1222.62"/><polygon class="cls-8" points="2675.58 1673.01 2675.58 1544.38 2787.04 1480.07 2787.04 1608.77 2675.58 1673.01"/><polygon class="cls-8" points="1115.16 1544.5 1003.7 1608.76 1003.7 1480.15 1115.16 1415.8 1115.16 1544.5"/><polygon class="cls-8" points="1783.91 1673.1 1783.91 1544.47 1895.37 1480.16 1895.37 1608.86 1783.91 1673.1"/><polygon class="cls-8" points="1672.45 450.45 1449.43 579.11 1449.54 836.45 1672.45 707.75 1672.45 450.45"/><polygon class="cls-8" points="1561.29 1673.01 1338.86 1544.97 1560.99 1415.69 1561.29 1673.01"/><polygon class="cls-9" points="1672.38 2252.81 1672.29 2381.51 1226.52 2638.86 1226.52 2510.16 1672.38 2252.81"/><polygon class="cls-10" points="1783.81 2317.1 1783.81 2574.51 2229.64 2831.91 2229.67 2703.26 2564.02 2896.26 2564.05 2767.61 1783.81 2317.1"/><polygon class="cls-11" points="2341.53 1995.24 2564.09 1866.7 2786.96 1995.4 2898.42 1931.06 3121.34 2059.76 3009.88 2124.11 3121.34 2188.46 2898.42 2317.16 2341.53 1995.24"/><polygon class="cls-11" points="2675.5 2445.86 3121.34 2188.46 3121.37 2317.12 2675.57 2574.58 2675.5 2445.86"/><polygon class="cls-10" points="1672.38 1995.4 1672.38 2252.81 2006.74 2445.82 2006.75 2188.46 1672.38 1995.4"/><polygon class="cls-11" points="3009.88 3025.01 3121.31 2960.61 2452.56 2574.51 2564.05 2510.21 2006.75 2188.46 1783.81 2317.1 3009.88 3025.01"/><polygon class="cls-11" points="1895.27 965.74 2118.18 837.04 2118.18 708.34 1895.27 837.04 1895.27 965.74"/><polygon class="cls-10" points="2786.93 965.74 3009.85 837.04 3009.85 708.34 2786.93 837.04 2786.93 965.74"/><polygon class="cls-11" points="2341.13 1609.3 2341.13 1609.3 2341.13 1480.6 2229.64 1544.9 2341.13 1609.3"/><polygon class="cls-11" points="2786.93 965.74 2786.93 965.74 2786.93 837.04 2675.48 901.39 2786.93 965.74"/><polygon class="cls-11" points="2341.13 1480.6 2341.13 1480.6 2341.1 1351.84 1783.81 1030.09 1672.35 1094.44 2229.64 1416.19 2229.64 1416.19 2341.13 1480.6"/><polygon class="cls-10" points="2898.32 1802.29 2898.39 1673.6 2341.1 1351.84 2341.13 1480.6 2118.21 1351.9 2118.21 1351.9 1672.35 1094.44 1672.35 965.74 1560.89 901.39 1560.89 1030.09 1560.89 1030.09 1560.89 1158.79 1895.27 1351.84 2341.13 1609.3 2341.05 1480.59 2898.32 1802.29"/><polygon class="cls-11" points="1895.27 965.74 1895.27 965.74 1895.27 837.04 1783.81 901.39 1895.27 965.74"/><polygon class="cls-11" points="1895.27 837.04 1895.27 837.04 1895.27 708.34 1783.81 772.69 1895.27 837.04"/><polyline class="cls-11" points="1785.97 773.94 1783.81 772.69 1783.81 775.19"/><line class="cls-12" x1="1783.81" y1="783.11" x2="1783.81" y2="894.93"/><polyline class="cls-11" points="1783.81 898.89 1783.81 901.39 1785.97 902.64"/><line class="cls-13" x1="1792.83" y1="906.6" x2="1889.67" y2="962.51"/><polyline class="cls-11" points="1893.1 964.49 1895.27 965.74 1895.27 963.24"/><line class="cls-12" x1="1895.27" y1="955.32" x2="1895.27" y2="843.5"/><polyline class="cls-11" points="1895.27 839.54 1895.27 837.04 1893.1 835.79"/><line class="cls-13" x1="1886.24" y1="831.83" x2="1789.4" y2="775.92"/><polygon class="cls-11" points="1783.81 901.39 1783.81 1030.09 1672.35 1094.44 1672.35 965.74 1783.81 901.39"/><polyline class="cls-11" points="2454.72 1028.84 2452.56 1030.09 2452.55 1032.59"/><line class="cls-14" x1="2452.54" y1="1040.5" x2="2452.38" y2="1152.28"/><polyline class="cls-11" points="2452.37 1156.24 2452.37 1158.74 2454.53 1157.49"/><line class="cls-15" x1="2461.4" y1="1153.54" x2="2558.42" y2="1097.67"/><polyline class="cls-11" points="2561.85 1095.69 2564.02 1094.44 2564.02 1091.94"/><line class="cls-13" x1="2564.02" y1="1084.02" x2="2564.02" y2="972.2"/><polyline class="cls-11" points="2564.02 968.24 2564.02 965.74 2561.85 966.99"/><line class="cls-13" x1="2555" y1="970.95" x2="2458.15" y2="1026.86"/><line class="cls-11" x1="2341.13" y1="1738" x2="2338.96" y2="1736.75"/><line class="cls-12" x1="2332.11" y1="1732.79" x2="2235.26" y2="1676.88"/><polyline class="cls-11" points="2231.84 1674.9 2229.67 1673.65 2227.51 1674.9"/><line class="cls-12" x1="2220.65" y1="1678.86" x2="2123.8" y2="1734.77"/><polyline class="cls-11" points="2120.38 1736.75 2118.21 1738 2120.38 1739.25"/><line class="cls-16" x1="2127.23" y1="1743.21" x2="2558.37" y2="1992.24"/><polyline class="cls-11" points="2561.8 1994.22 2563.97 1995.47 2566.14 1994.23"/><line class="cls-17" x1="2573.02" y1="1990.28" x2="2670.33" y2="1934.49"/><polyline class="cls-11" points="2673.78 1932.51 2675.94 1931.27 2673.78 1930.02"/><line class="cls-18" x1="2666.91" y1="1926.06" x2="2346.73" y2="1741.23"/><line class="cls-11" x1="2343.29" y1="1739.25" x2="2341.13" y2="1738"/><polyline class="cls-11" points="2120.37 1221.95 2118.2 1223.2 2118.2 1225.7"/><polyline class="cls-19" points="2118.2 1233.62 2118.21 1351.9 2118.18 1609.25 2118.21 1731.54"/><polyline class="cls-11" points="2118.21 1735.5 2118.21 1738 2120.38 1736.75"/><line class="cls-12" x1="2127.23" y1="1732.79" x2="2224.08" y2="1676.88"/><polyline class="cls-11" points="2227.51 1674.9 2229.67 1673.65 2229.67 1671.15"/><polyline class="cls-20" points="2229.67 1663.23 2229.64 1544.9 2229.64 1293.95"/><polyline class="cls-11" points="2229.64 1289.99 2229.64 1287.49 2231.81 1286.24"/><line class="cls-21" x1="2238.67" y1="1282.28" x2="2669.88" y2="1033.32"/><polyline class="cls-11" points="2673.31 1031.34 2675.48 1030.09 2675.48 1027.59"/><line class="cls-13" x1="2675.48" y1="1019.67" x2="2675.48" y2="907.85"/><polyline class="cls-11" points="2675.48 903.89 2675.48 901.39 2673.31 902.64"/><line class="cls-22" x1="2666.45" y1="906.6" x2="2123.8" y2="1219.97"/><polygon class="cls-11" points="2786.93 837.04 3009.85 708.34 2898.39 643.99 2675.48 772.69 2675.48 772.69 2341.1 965.74 2006.72 1158.79 2118.2 1223.2 2452.56 1030.09 2452.56 1030.09 2786.93 837.04"/><polygon class="cls-11" points="2675.48 772.69 2675.48 901.39 2786.93 965.74 2786.93 837.04 2675.48 772.69"/><polygon class="cls-11" points="2786.93 837.04 3344.23 1158.79 3344.23 1030.09 2786.93 708.34 2786.93 837.04"/><polyline class="cls-10" points="3344.23 1158.79 3344.23 1158.79 3455.68 1094.44 3455.68 965.74 3344.23 1030.09 3344.23 1030.09 3009.85 1223.14 3009.85 1351.84 3009.85 1351.84 3009.85 1480.55 3121.31 1416.19 3121.31 1287.49"/><polygon class="cls-10" points="2452.56 1287.49 2341.1 1351.84 2786.93 1609.25 2452.56 1802.3 2564.09 1866.7 2898.59 1673.55 3009.85 1609.25 2452.56 1287.49"/><polygon class="cls-23" points="3121.34 1802.35 3232.8 1866.79 3232.8 1995.4 3121.34 1931.14 3121.34 1802.35"/><polygon class="cls-23" points="1449.46 2124.11 1560.92 2188.46 1560.92 2317.16 1449.46 2252.81 1449.46 2124.11"/><polygon class="cls-23" points="2118.21 2252.81 2452.59 2445.86 2452.59 2317.16 2118.21 2124.11 2118.21 2252.81"/><polygon class="cls-23" points="1783.84 2317.2 1783.84 2445.91 1895.3 2510.16 1895.3 2381.46 1783.84 2317.2"/><polygon class="cls-23" points="2898.42 2188.46 2898.42 2317.16 3009.88 2381.51 3009.88 2252.81 2898.42 2188.46"/><polygon class="cls-23" points="2786.96 2252.81 2786.96 2381.43 2898.42 2445.78 2898.42 2317.16 2786.96 2252.81"/><polygon class="cls-23" points="1783.84 2574.3 1783.84 2703 1895.3 2767.26 1895.3 2638.56 1783.84 2574.3"/><polygon class="cls-23" points="1226.54 579.69 1226.54 708.39 1338 772.65 1338 643.95 1226.54 579.69"/><polygon class="cls-23" points="2006.75 515.39 2006.75 644.09 2118.21 708.35 2118.21 579.65 2006.75 515.39"/><polygon class="cls-23" points="2118.21 579.69 2118.21 708.39 2229.67 772.65 2229.67 643.95 2118.21 579.69"/><polygon class="cls-23" points="1560.92 1673.65 1672.38 1738 1672.38 1866.7 1560.92 1802.35 1560.92 1673.65"/><polygon class="cls-23" points="1449.46 1738 1560.92 1802.35 1560.92 1931.06 1449.46 1866.7 1449.46 1738"/><polygon class="cls-23" points="1783.84 1673.65 1895.3 1738 1895.3 1866.7 1783.84 1802.35 1783.84 1673.65"/><polygon class="cls-23" points="1783.84 1544.95 1895.3 1609.3 1895.3 1738 1783.84 1673.65 1783.84 1544.95"/><polygon class="cls-23" points="1338 1802.35 1449.46 1866.7 1449.46 1995.4 1338 1931.06 1338 1802.35"/><polygon class="cls-23" points="1449.46 1866.7 1560.92 1931.06 1560.92 2059.76 1449.46 1995.4 1449.46 1866.7"/><polygon class="cls-23" points="1783.84 2059.76 1895.3 2124.11 1895.3 2252.81 1783.84 2188.46 1783.84 2059.76"/><polygon class="cls-23" points="1895.3 2124.11 2006.75 2188.46 2006.75 2317.16 1895.3 2252.81 1895.3 2124.11"/><polygon class="cls-23" points="1115.09 1931.06 1226.54 1995.4 1226.54 2124.11 1115.09 2059.76 1115.09 1931.06"/><polygon class="cls-23" points="1003.63 1738 1115.09 1802.35 1115.09 1931.06 1003.63 1866.7 1003.63 1738"/><polygon class="cls-23" points="1115.44 1673.28 1226.9 1737.71 1226.54 1866.7 1115.09 1802.35 1115.44 1673.28"/><polygon class="cls-23" points="892.17 1931.06 1003.63 1995.4 1003.63 2124.11 892.17 2059.76 892.17 1931.06"/><polygon class="cls-23" points="1560.92 1931.06 1672.38 1995.4 1672.38 2124.11 1560.92 2059.76 1560.92 1931.06"/><polygon class="cls-23" points="1783.84 1802.35 1895.29 1866.7 1895.29 1995.4 1783.84 1931.05 1783.84 1802.35"/><polygon class="cls-23" points="1449.46 1738 1560.92 1802.35 1560.92 1931.06 1449.46 1866.7 1449.46 1738"/><polygon class="cls-23" points="1560.92 1673.65 1672.38 1738 1672.38 1866.7 1560.92 1802.35 1560.92 1673.65"/><polygon class="cls-23" points="1560.92 1673.65 1672.38 1738 1672.38 1866.7 1560.92 1802.35 1560.92 1673.65"/><polygon class="cls-23" points="1338 1416.25 1449.46 1480.68 1449.46 1609.3 1338 1545.03 1338 1416.25"/><polygon class="cls-23" points="1560.92 1673.65 1672.38 1738 1672.38 1866.7 1560.92 1802.35 1560.92 1673.65"/><polygon class="cls-23" points="3121.34 1673.65 3232.8 1738.08 3232.8 1866.7 3121.34 1802.43 3121.34 1673.65"/><polygon class="cls-23" points="3009.88 1351.45 3121.34 1415.88 3121.34 1544.5 3009.88 1480.23 3009.88 1351.45"/><polygon class="cls-23" points="2564.05 2124.11 2675.5 2188.54 2675.5 2317.16 2564.05 2252.81 2564.05 2124.11"/><polygon class="cls-23" points="3567.17 1287.82 3678.63 1351.9 3678.63 1738 3567.17 1673.73 3567.17 1287.82"/><polygon class="cls-24" points="2229.67 2317.16 2341.13 2381.51 2341.13 2510.21 2229.67 2445.86 2229.67 2317.16"/><polygon class="cls-23" points="1783.84 2831.78 1895.29 2896.21 1895.3 3024.83 1783.84 2960.56 1783.84 2831.78"/><polygon class="cls-23" points="2006.75 2703.26 2118.21 2767.69 2118.21 2896.31 2006.75 2832.04 2006.75 2703.26"/><polygon class="cls-23" points="1449.46 2767.26 1560.92 2831.69 1560.92 2960.31 1449.46 2896.04 1449.46 2767.26"/><polygon class="cls-24" points="780.71 837.1 892.17 901.45 892.17 1158.85 780.71 1094.5 780.71 837.1"/><polygon class="cls-23" points="669.25 257.94 780.71 322.37 780.71 450.99 669.25 386.72 669.25 257.94"/><polygon class="cls-23" points="446.33 1030.15 557.79 1094.5 557.79 1223.2 446.33 1158.85 446.33 1030.15"/><polygon class="cls-23" points="780.71 1609.3 892.17 1673.65 892.17 1931.06 780.71 1866.7 780.71 1609.3"/><polygon class="cls-23" points="557.79 708.39 669.25 772.74 669.25 901.45 557.79 837.1 557.79 708.39"/><polygon class="cls-23" points="223.42 386.64 334.88 450.99 334.88 579.69 223.42 515.34 223.42 386.64"/><polygon class="cls-23" points="3678.63 322.29 3790.09 386.72 3790.09 515.34 3678.63 451.02 3678.63 322.29"/><polygon class="cls-23" points="3790.09 772.74 3901.55 837.1 3901.55 965.8 3790.09 901.45 3790.09 772.74"/><polygon class="cls-23" points="3344.26 1158.85 3455.71 1223.2 3455.71 1351.9 3344.26 1287.55 3344.26 1158.85"/><polygon class="cls-23" points="669.25 1287.55 780.71 1351.9 780.71 1480.6 669.25 1416.25 669.25 1287.55"/><polygon class="cls-23" points="1003.63 2124.11 1115.09 2188.46 1115.09 2317.16 1003.63 2252.81 1003.63 2124.11"/><polygon class="cls-23" points="3232.8 708.1 3344.26 772.53 3344.26 901.15 3232.8 836.88 3232.8 708.1"/><polygon class="cls-23" points="3455.71 965.42 3567.17 1030.15 3567.17 1158.85 3455.71 1094.2 3455.71 965.42"/><polygon class="cls-23" points="3567.17 901.45 3678.63 965.8 3678.63 1094.5 3567.17 1030.15 3567.17 901.45"/><polygon class="cls-23" points="3678.63 965.8 3790.09 1030.15 3790.09 1158.85 3678.63 1094.5 3678.63 965.8"/><polygon class="cls-23" points="3567.17 772.74 3678.63 837.1 3678.63 965.8 3567.17 901.45 3567.17 772.74"/><polygon class="cls-23" points="2229.67 515.34 2341.13 579.77 2341.13 708.39 2229.67 644.12 2229.67 515.34"/><polygon class="cls-23" points="1783.84 1673.65 1895.3 1738 1895.3 1866.7 1783.84 1802.35 1783.84 1673.65"/><polygon class="cls-23" points="1672.38 1738 1783.84 1802.35 1783.84 1931.06 1672.38 1866.7 1672.38 1738"/><polygon class="cls-23" points="1895.3 1609.3 2006.75 1673.65 2006.75 1802.35 1895.3 1738 1895.3 1609.3"/><polygon class="cls-23" points="1226.9 1351.9 1338.36 1416.33 1338.36 1544.95 1226.54 1480.6 1226.9 1351.9"/><polygon class="cls-23" points="1226.54 708.39 1338 772.83 1338 901.45 1226.54 837.18 1226.54 708.39"/><polygon class="cls-23" points="1895.3 1866.7 2452.59 2188.4 2452.59 2059.76 1895.3 1738 1895.3 1866.7"/><polygon class="cls-24" points="1895.3 1609.3 1895.3 1738 2006.75 1802.35 2006.75 1673.65 1895.3 1609.3"/><polygon class="cls-23" points="2118.21 1480.6 2118.21 1609.3 2229.67 1673.65 2229.67 1544.95 2118.21 1480.6"/><polygon class="cls-24" points="2229.67 1544.95 2786.96 1866.7 2786.96 1738 2229.67 1416.25 2229.67 1544.95"/><polygon class="cls-23" points="2341.13 1223.2 2898.42 1544.95 2898.42 1416.34 2341.13 1094.5 2341.13 1223.2"/><polygon class="cls-23" points="2786.96 1223.29 2786.96 1351.99 2898.42 1416.25 2898.42 1287.55 2786.96 1223.29"/><polygon class="cls-23" points="2564.05 837.1 2564.05 965.8 2675.51 1030.06 2675.51 901.35 2564.05 837.1"/><polygon class="cls-23" points="2675.51 901.4 3232.8 1223.15 3232.8 1094.54 2675.5 772.79 2675.51 901.4"/><polygon class="cls-23" points="1449.46 1223.2 2006.75 1544.95 2006.75 1416.25 1449.46 1094.5 1449.46 1223.2"/><polygon class="cls-23" points="1895.3 1223.2 1895.3 1609.3 2006.75 1673.65 2006.75 1287.55 1895.3 1223.2"/><polygon class="cls-23" points="1449.46 965.8 1449.46 1094.5 1560.92 1158.85 1560.92 1030.15 1449.46 965.8"/><polygon class="cls-23" points="1672.38 837.1 1672.38 965.8 1783.84 1030.15 1783.84 901.45 1672.38 837.1"/><polygon class="cls-23" points="1783.84 901.45 2341.13 1223.2 2341.13 1094.5 1783.84 772.74 1783.84 901.45"/><polygon class="cls-23" points="2786.96 64.93 2786.96 193.55 2898.42 129.28 2786.96 64.93"/><polygon class="cls-23" points="2675.5 257.94 2675.5 386.64 2898.42 515.34 2898.42 386.64 2675.5 257.94"/><polygon class="cls-2" points="2564.05 965.8 2564.05 1738 2675.5 1673.65 2675.5 901.39 2564.05 965.8"/><polygon class="cls-25" points="2341.13 579.69 2452.57 643.73 2452.59 772.74 2341.13 708.39 2341.13 579.69"/><polygon class="cls-25" points="2229.67 515.34 2341.13 579.69 2341.13 708.39 2229.67 644.04 2229.67 515.34"/><polygon class="cls-25" points="2341.13 708.39 2452.59 772.74 2452.59 901.45 2341.13 837.1 2341.13 708.39"/><polygon class="cls-25" points="1895.3 450.99 2118.21 579.69 2118.19 708.23 1895.3 579.69 1895.3 450.99"/><polygon class="cls-25" points="2341.13 1351.9 2452.59 1416.25 2452.59 1673.65 2341.13 1609.3 2341.13 1351.9"/><polygon class="cls-25" points="2341.13 1223.2 2452.59 1287.55 2452.59 1416.25 2341.13 1351.9 2341.13 1223.2"/><polygon class="cls-26" points="2564.05 965.8 2675.41 901.39 2786.73 965.68 2675.39 1030.21 2564.05 965.8"/><polygon class="cls-2" points="2118.19 837.01 2118.19 965.72 2229.65 901.36 2229.65 772.65 2118.19 837.01"/><polygon class="cls-2" points="1895.27 837.1 1895.27 965.8 2006.73 901.45 2006.73 772.73 1895.27 837.1"/><polygon class="cls-2" points="1783.81 1030.01 1783.84 1158.85 1895.27 1094.37 1895.27 965.65 1783.81 1030.01"/><polygon class="cls-2" points="1783.84 1158.85 1783.81 1287.58 1895.27 1223.23 1895.27 1094.52 1783.84 1158.85"/><polygon class="cls-2" points="2898.4 643.89 2898.4 772.59 3009.86 708.24 3009.88 579.69 2898.4 643.89"/><polygon class="cls-2" points="2898.4 772.75 2898.4 901.45 3009.86 837.1 3009.86 708.39 2898.4 772.75"/><polygon class="cls-2" points="2675.48 772.68 2675.48 901.39 2786.94 837.03 2786.94 708.32 2675.48 772.68"/><polygon class="cls-25" points="2675.5 386.64 2898.42 515.34 2898.4 643.92 2675.5 515.34 2675.5 386.64"/><polygon class="cls-2" points="2452.57 643.73 2452.59 772.74 2564.05 708.39 2564.05 579.69 2452.57 643.73"/><polygon class="cls-2" points="2452.59 772.74 2452.59 901.45 2564.02 837.24 2564.05 708.39 2452.59 772.74"/><polygon class="cls-25" points="2341.13 837.1 2452.59 901.45 2452.57 1158.56 2341.11 1094.42 2341.13 837.1"/><polygon class="cls-26" points="2564.02 322.21 2675.64 258.07 2786.96 322.29 2675.5 386.64 2564.02 322.21"/><polygon class="cls-2" points="2564.05 450.99 2564.05 579.69 2675.5 515.34 2675.5 386.64 2564.05 450.99"/><polygon class="cls-2" points="2341.13 450.99 2341.13 579.69 2452.59 515.34 2452.59 386.64 2341.13 450.99"/><polygon class="cls-2" points="2564.05 579.69 2564.05 708.39 2675.48 643.89 2675.5 515.34 2564.05 579.69"/><polygon class="cls-25" points="2452.59 386.64 2564.05 450.99 2564.05 708.39 2452.57 643.73 2452.59 386.64"/><polygon class="cls-25" points="2564.05 708.39 2675.48 772.55 2675.48 901.39 2564.02 837.24 2564.05 708.39"/><polygon class="cls-25" points="3009.86 451.21 3121.32 515.33 3121.34 644.04 3009.88 579.69 3009.86 451.21"/><polygon class="cls-2" points="2118.19 965.65 2118.21 1094.5 2341.43 965.62 2341.13 837.1 2118.19 965.65"/><polygon class="cls-27" points="1783.84 2188.46 1783.84 1416.25 1895.3 1480.6 1895.3 2252.81 1783.84 2188.46"/><polygon class="cls-25" points="1560.92 2574.56 1672.38 2510.21 1672.38 2381.51 1560.92 2445.86 1560.92 2574.56"/><polygon class="cls-25" points="1449.46 2638.91 1560.92 2574.56 1560.92 2445.86 1449.46 2510.21 1449.46 2638.91"/><polygon class="cls-25" points="1560.92 2445.86 1672.38 2381.51 1672.38 2252.81 1560.92 2317.16 1560.92 2445.86"/><polygon class="cls-25" points="1115.09 2703.26 1338 2574.56 1338 2445.86 1115.09 2574.56 1115.09 2703.26"/><polygon class="cls-25" points="1560.92 1802.35 1672.38 1738 1672.38 1480.6 1560.92 1544.95 1560.92 1802.35"/><polygon class="cls-25" points="1560.92 1931.06 1672.38 1866.7 1672.38 1738 1560.92 1802.35 1560.92 1931.06"/><polygon class="cls-2" points="1338 2317.16 1338 2188.46 1449.46 2252.81 1449.46 2381.51 1338 2317.16"/><polygon class="cls-2" points="1115.09 2317.16 1115.09 2188.46 1226.54 2252.81 1226.54 2381.51 1115.09 2317.16"/><polygon class="cls-2" points="1003.63 2124.11 1003.63 1995.4 1115.09 2059.76 1115.09 2188.46 1003.63 2124.11"/><polygon class="cls-2" points="1003.63 1995.4 1003.63 1866.7 1115.09 1931.06 1115.09 2059.76 1003.63 1995.4"/><polygon class="cls-2" points="2118.21 2510.21 2118.21 2381.51 2229.67 2445.86 2229.67 2574.56 2118.21 2510.21"/><polygon class="cls-2" points="2118.21 2381.51 2118.21 2252.81 2229.67 2317.16 2229.67 2445.86 2118.21 2381.51"/><polygon class="cls-2" points="1895.3 2381.51 1895.3 2252.81 2006.75 2317.16 2006.75 2445.86 1895.3 2381.51"/><polygon class="cls-25" points="1895.3 2767.61 2118.21 2638.91 2118.21 2510.21 1895.3 2638.91 1895.3 2767.61"/><polygon class="cls-2" points="1672.38 2510.21 1672.38 2381.51 1783.84 2445.86 1783.84 2574.56 1672.38 2510.21"/><polygon class="cls-2" points="1672.38 2381.51 1672.38 2252.81 1783.84 2317.16 1783.84 2445.86 1672.38 2381.51"/><polygon class="cls-25" points="1560.92 2317.16 1672.38 2252.81 1672.38 2124.11 1560.92 2188.46 1560.92 2317.16"/><polygon class="cls-2" points="1783.84 2703.26 1783.84 2574.56 1895.3 2638.91 1895.3 2767.61 1783.84 2703.26"/><polygon class="cls-2" points="1560.92 2703.26 1560.92 2574.56 1672.48 2638.97 1672.38 2767.61 1560.92 2703.26"/><polygon class="cls-2" points="1783.84 2574.56 1783.84 2445.86 1895.3 2510.21 1895.3 2638.91 1783.84 2574.56"/><polygon class="cls-25" points="1672.38 2767.61 1783.84 2703.26 1783.84 2445.86 1672.38 2510.21 1672.38 2767.61"/><polygon class="cls-25" points="1783.84 2445.86 1895.3 2381.51 1895.3 2252.81 1783.84 2317.16 1783.84 2445.86"/><polygon class="cls-25" points="2229.67 2703.26 2341.13 2638.91 2341.13 2510.21 2229.67 2574.56 2229.67 2703.26"/><polygon class="cls-2" points="1338 2188.46 1338 2059.76 1560.92 2188.46 1560.92 2317.16 1338 2188.46"/><polygon class="cls-28" points="3344.25 1931.06 3455.71 1995.37 3567.17 1931.02 3455.71 1866.7 3344.25 1931.06"/><polygon class="cls-28" points="1672.36 2510.08 1895.28 2381.47 1783.82 2317.12 1560.9 2445.82 1672.36 2510.08"/><polygon class="cls-28" points="1895.28 2381.47 2452.59 2703.26 2564.03 2638.87 1895.3 2252.81 1783.82 2317.12 1895.28 2381.47"/><polygon class="cls-28" points="1783.84 1802.35 1895.3 1866.7 2006.75 1802.35 1895.3 1738 1783.84 1802.35"/><polygon class="cls-28" points="1672.38 1866.62 1783.84 1931.06 1895.3 1866.7 1783.84 1802.35 1672.38 1866.62"/><polygon class="cls-28" points="2006.75 1802.35 2118.21 1866.7 2229.67 1802.35 2118.21 1738 2006.75 1802.35"/><polygon class="cls-28" points="2006.75 1673.65 2118.21 1738 2229.67 1673.65 2118.18 1609.25 2006.75 1673.65"/><polygon class="cls-28" points="1560.92 1930.97 1672.38 1995.4 1783.84 1931.06 1672.38 1866.7 1560.92 1930.97"/><polygon class="cls-28" points="1672.38 1995.4 1783.84 2059.76 1895.3 1995.4 1783.84 1931.06 1672.38 1995.4"/><polygon class="cls-28" points="1338 2059.68 1449.46 2124.11 1560.92 2059.76 1449.46 1995.4 1338 2059.68"/><polygon class="cls-28" points="1225.77 1737.93 1337.22 1802.36 1448.68 1738.01 1337.22 1673.66 1225.77 1737.93"/><polygon class="cls-28" points="3567.17 901.45 3678.63 965.8 3790.09 901.45 3678.63 837.1 3567.17 901.45"/><polygon class="cls-28" points="1114.31 1545.04 1225.77 1609.47 1337.22 1545.12 1225.77 1480.77 1114.31 1545.04"/><polygon class="cls-28" points="2341.12 708.24 2452.58 772.67 2564.04 708.32 2452.58 643.97 2341.12 708.24"/><polygon class="cls-28" points="2564.04 708.24 2675.5 772.67 2786.96 708.32 2675.5 643.97 2564.04 708.24"/><polygon class="cls-28" points="3567.17 772.74 3678.63 837.1 3790.09 772.74 3678.62 708.4 3567.17 772.74"/><polygon class="cls-28" points="1783.81 2059.68 1895.3 2124.11 2006.75 2059.76 1895.27 1995.4 1783.81 2059.68"/><polygon class="cls-28" points="2006.75 2059.76 2118.21 2124.11 2229.67 2059.76 2118.21 1995.4 2006.75 2059.76"/><polygon class="cls-28" points="1895.3 1995.4 2006.75 2059.76 2118.21 1995.4 2006.75 1931.06 1895.3 1995.4"/><polygon class="cls-28" points="2006.75 1931.06 2118.21 1995.4 2229.67 1931.06 2118.21 1866.7 2006.75 1931.06"/><polygon class="cls-28" points="1672.38 1866.62 1783.84 1931.06 1895.3 1866.7 1783.84 1802.35 1672.38 1866.62"/><polygon class="cls-28" points="1783.84 1802.35 1895.3 1866.7 2006.75 1802.35 1895.3 1738 1783.84 1802.35"/><polygon class="cls-28" points="1783.84 1802.35 1895.3 1866.7 2006.75 1802.35 1895.3 1738 1783.84 1802.35"/><polygon class="cls-28" points="1560.92 1544.87 1672.38 1609.3 1783.84 1544.95 1672.38 1480.6 1560.92 1544.87"/><polygon class="cls-28" points="1783.84 1802.35 1895.3 1866.7 2006.75 1802.35 1895.3 1738 1783.84 1802.35"/><polygon class="cls-28" points="3344.26 1802.35 3455.71 1866.7 3567.17 1802.35 3455.71 1738 3344.26 1802.35"/><polygon class="cls-28" points="3232.78 1480.72 3344.24 1545.16 3455.7 1480.81 3344.24 1416.46 3232.78 1480.72"/><polygon class="cls-28" points="2786.96 2252.81 2898.42 2317.16 3009.88 2252.81 2898.42 2188.46 2786.96 2252.81"/><polygon class="cls-28" points="3790.07 1416.41 3901.53 1480.85 4012.99 1416.5 3901.53 1352.15 3790.07 1416.41"/><polygon class="cls-28" points="2452.57 2445.86 2564.05 2510.21 2675.5 2445.86 2564.03 2381.59 2452.57 2445.86"/><polygon class="cls-28" points="2006.75 2960.58 2118.21 3025.01 2229.67 2960.66 2118.21 2896.31 2006.75 2960.58"/><polygon class="cls-28" points="2229.67 2831.92 2341.13 2896.35 2452.59 2832 2341.13 2767.65 2229.67 2831.92"/><polygon class="cls-28" points="1003.63 965.8 1115.09 1030.23 1226.54 965.88 1115.09 901.53 1003.63 965.8"/><polygon class="cls-28" points="892.17 386.6 1003.63 451.03 1115.09 386.68 1003.63 322.33 892.17 386.6"/><polygon class="cls-28" points="669.25 1160.06 780.71 1224.49 892.17 1160.14 780.71 1095.79 669.25 1160.06"/><polygon class="cls-28" points="1003.63 1737.97 1115.09 1802.4 1226.54 1738.05 1115.09 1673.7 1003.63 1737.97"/><polygon class="cls-28" points="780.71 837.14 892.17 901.57 1003.63 837.22 892.17 772.87 780.71 837.14"/><polygon class="cls-28" points="446.33 515.3 557.79 579.73 669.25 515.38 557.79 451.03 446.33 515.3"/><polygon class="cls-28" points="3901.55 450.91 4013.01 515.34 4124.47 450.99 4013.01 386.64 3901.55 450.91"/><polygon class="cls-28" points="4013.01 901.4 4124.47 965.84 4235.92 901.49 4124.47 837.13 4013.01 901.4"/><polygon class="cls-28" points="3567.17 1287.76 3678.63 1352.19 3790.09 1287.84 3678.63 1223.48 3567.17 1287.76"/><polygon class="cls-28" points="892.17 1416.21 1003.63 1480.64 1115.09 1416.29 1003.63 1351.94 892.17 1416.21"/><polygon class="cls-28" points="1226.54 2252.73 1338 2317.16 1449.46 2252.81 1338 2188.46 1226.54 2252.73"/><polygon class="cls-28" points="2452.58 643.97 2564.04 708.4 2675.49 644.05 2564.04 579.7 2452.58 643.97"/><polygon class="cls-28" points="2006.75 1802.35 2118.21 1866.7 2229.67 1802.35 2118.21 1738 2006.75 1802.35"/><polygon class="cls-28" points="1895.3 1866.7 2006.75 1931.06 2118.21 1866.7 2006.75 1802.35 1895.3 1866.7"/><polygon class="cls-28" points="2118.21 1738 2229.67 1802.35 2341.13 1738 2229.67 1673.65 2118.21 1738"/><polygon class="cls-28" points="1672.39 1737.92 1783.85 1802.35 1895.3 1738 1783.85 1673.65 1672.39 1737.92"/><polygon class="cls-28" points="1449.45 1480.57 1560.9 1545 1672.36 1480.65 1560.9 1416.3 1449.45 1480.57"/><polygon class="cls-28" points="1449.45 837.06 1560.9 901.49 1672.36 837.14 1560.9 772.79 1449.45 837.06"/><polygon class="cls-29" points="2118.21 2510.21 2341.13 2381.51 2229.66 2317.12 2006.74 2445.82 2118.21 2510.21"/><polygon class="cls-28" points="2229.67 1931.06 2675.5 2188.47 2786.96 2124.11 2341.13 1866.7 2229.67 1931.06 2229.67 1931.06"/><polygon class="cls-28" points="2452.58 1673.72 2675.5 1545.11 2564.04 1480.76 2341.13 1609.3 2452.58 1673.72"/><polygon class="cls-28" points="2563.77 1609.1 3009.6 1866.58 3121.33 1802.52 2675.5 1545.11 2564.05 1609.3 2563.77 1609.1"/><polygon class="cls-28" points="2675.5 2059.81 3009.87 1866.78 2897.12 1801.7 2564.04 1995.56 2675.5 2059.81"/><polygon class="cls-28" points="2675.5 1158.74 2898.41 1030.13 2786.96 965.78 2564.04 1094.48 2675.5 1158.74"/><polygon class="cls-28" points="2675.5 1287.49 3121.33 1544.81 3232.79 1480.55 2786.96 1223.14 2675.5 1287.49 2675.5 1287.49"/><polygon class="cls-28" points="2898.42 1030.06 3121.33 901.45 3009.87 837.1 2786.96 965.8 2898.42 1030.06"/><polygon class="cls-28" points="3567.17 515.37 4013.01 772.69 4124.47 708.43 3678.63 451.02 3567.17 515.37 3567.17 515.37"/><polygon class="cls-28" points="3121.33 1416.15 3455.71 1223.12 3342.95 1158.04 3009.87 1351.89 3121.33 1416.15"/><polygon class="cls-28" points="1783.83 1158.81 2006.75 1030.2 1895.29 965.85 1672.37 1094.55 1783.83 1158.81"/><polygon class="cls-28" points="1783.84 1287.55 2341.13 1609.3 2452.59 1544.95 1895.3 1223.2 1783.84 1287.55 1783.84 1287.55"/><polygon class="cls-28" points="2006.75 1030.13 2229.66 901.52 2118.2 837.17 1895.29 965.87 2006.75 1030.13"/><polygon class="cls-28" points="2118.28 965.9 2564.05 1223.2 2675.5 1158.93 2229.66 901.52 2118.2 965.87 2118.28 965.9"/><polygon class="cls-28" points="2229.66 1416.12 2564.05 1223.2 2452.59 1158.85 2118.21 1351.9 2229.66 1416.12"/><polygon class="cls-28" points="223.42 1288.81 334.88 1224.46 446.34 1288.73 669.25 1160.11 1115.09 1417.52 1338.01 1288.81 1560.92 1417.52 1672.38 1353.16 2118.22 1610.56 2229.67 1546.22 2006.76 1417.52 2229.67 1288.73 2118.22 1224.38 2452.59 1031.41 2898.43 1288.81 1560.92 2061.02 223.42 1288.81"/><polygon class="cls-28" points="1672.47 2768.02 1783.93 2832.45 1895.39 2768.1 1783.93 2703.75 1672.47 2768.02"/><polygon class="cls-26" points="2452.59 1287.55 2564.05 1351.9 2564.05 1738 2452.59 1673.65 2452.59 1287.55"/><polygon class="cls-26" points="2452.56 901.17 2564.02 837.24 2675.5 901.39 2564.02 965.52 2452.56 901.17"/><polygon class="cls-26" points="2229.67 1158.85 2341.13 1094.5 2452.59 1158.85 2341.13 1223.2 2229.67 1158.85"/><polygon class="cls-26" points="2229.67 1030.15 2341.05 966.44 2452.37 1030.55 2341.13 1094.5 2229.67 1030.15"/><polygon class="cls-30" points="2118.26 1094.52 2229.67 1030.15 2341.13 1094.5 2229.67 1158.85 2118.26 1094.52"/><polygon class="cls-26" points="2006.73 772.66 2118.19 708.39 2229.65 772.65 2118.19 837.01 2006.73 772.66"/><polygon class="cls-26" points="2564.02 708.52 2675.48 644.13 2786.94 707.99 2675.48 772.35 2564.02 708.52"/><polygon class="cls-26" points="2898.4 901.64 3009.86 837.25 3121.32 901.1 3009.86 965.46 2898.4 901.64"/><polygon class="cls-26" points="1783.81 772.86 1895.27 836.98 1895.27 965.8 1783.84 901.45 1783.81 772.86"/><polygon class="cls-26" points="1783.81 772.74 1895.27 708.31 2006.73 772.73 1895.27 837.1 1783.81 772.74"/><polygon class="cls-30" points="1672.36 965.78 1783.81 1029.9 1783.81 1158.72 1672.36 1094.5 1672.36 965.78"/><polygon class="cls-26" points="1672.36 965.66 1783.84 901.45 1895.27 965.65 1783.81 1030.01 1672.36 965.66"/><polygon class="cls-26" points="2229.67 515.34 2341.11 450.85 2564.05 579.69 2452.57 644.04 2229.67 515.34"/><polygon class="cls-26" points="1895.27 451 2006.75 386.64 2229.67 515.34 2118.21 579.69 1895.27 451"/><polygon class="cls-26" points="2006.75 386.64 2118.21 322.29 2341.11 450.85 2229.67 515.34 2006.75 386.64"/><polygon class="cls-30" points="2675.5 386.75 2787.02 322.15 3009.94 451.27 2898.48 515.16 2675.5 386.75"/><polygon class="cls-26" points="2787.02 322.15 2898.4 258.31 3121.32 387.01 3009.86 451.32 2787.02 322.15"/><polygon class="cls-26" points="2452.59 386.64 2564.02 322.21 2675.5 386.33 2564.02 450.99 2452.59 386.64"/><polygon class="cls-26" points="1672.38 1866.7 1783.84 1802.35 1783.84 1416.25 1672.38 1480.6 1672.38 1866.7"/><polygon class="cls-26" points="1672.38 2252.81 1783.84 2317.16 1895.3 2252.81 1783.84 2188.46 1672.38 2252.81"/><polygon class="cls-26" points="1449.16 1995.23 1560.92 2059.76 1671.95 1995.89 1560.92 1931.06 1449.16 1995.23"/><polygon class="cls-26" points="1783.84 2188.46 1895.3 2252.81 2006.75 2188.46 1895.3 2124.11 1783.84 2188.46"/><polygon class="cls-26" points="1449.16 2124.11 1560.92 2188.46 1672.38 2124.11 1560.92 2059.76 1449.16 2124.11"/><polygon class="cls-26" points="1338 2059.76 1449.16 2124.11 1560.92 2059.76 1449.16 1995.23 1338 2059.76"/><polygon class="cls-26" points="1226.54 2381.51 1338 2445.86 1449.46 2381.51 1338 2317.16 1226.54 2381.51"/><polygon class="cls-26" points="1783.84 2445.86 1895.3 2510.21 2006.75 2445.86 1895.3 2381.51 1783.84 2445.86"/><polygon class="cls-26" points="2117.97 2252.98 2229.43 2317.37 2340.88 2253.52 2229.43 2189.16 2117.97 2252.98"/><polygon class="cls-26" points="1003.63 2381.51 1115.09 2317.16 1115.09 2188.46 1003.63 2252.81 1003.63 2381.51"/><polygon class="cls-26" points="1003.63 2381.51 1115.09 2445.86 1226.54 2381.51 1115.09 2317.16 1003.63 2381.51"/><polygon class="cls-26" points="892.17 2188.46 1003.63 2124.11 1003.63 1995.4 892.17 2059.76 892.17 2188.46"/><polygon class="cls-26" points="892.17 2188.46 1003.63 2252.81 1115.09 2188.46 1003.63 2124.11 892.17 2188.46"/><polygon class="cls-26" points="1449.21 2638.97 1560.92 2703.26 1783.84 2574.56 1672.38 2510.21 1449.21 2638.97"/><polygon class="cls-26" points="1115.09 2703.26 1226.54 2767.61 1449.21 2638.97 1338 2574.56 1115.09 2703.26"/><polygon class="cls-26" points="1226.54 2767.61 1338 2831.96 1560.92 2703.26 1449.21 2638.97 1226.54 2767.61"/><polygon class="cls-26" points="1895.3 2767.61 2006.75 2831.96 2229.67 2703.26 2118.21 2638.91 1895.3 2767.61"/><polygon class="cls-26" points="2006.75 2831.96 2118.21 2896.31 2341.13 2767.61 2229.67 2703.26 2006.75 2831.96"/><polygon class="cls-26" points="1672.13 2767.3 1783.84 2831.96 1895.3 2767.61 1783.84 2703.26 1672.13 2767.3"/><polygon class="cls-26" points="1783.84 2831.96 1895.3 2896.31 2006.75 2831.96 1895.3 2767.61 1783.84 2831.96"/><polygon class="cls-31" points="2898.41 2059.68 2898.41 2188.3 3009.87 2124.03 3009.87 1995.33 2898.41 2059.68"/><polygon class="cls-31" points="1560.9 2703.13 1783.82 2574.43 1783.82 2445.81 1560.9 2574.43 1560.9 2703.13"/><polygon class="cls-31" points="1560.9 2831.92 1783.82 2703.22 1783.82 2574.6 1560.9 2703.22 1560.9 2831.92"/><polygon class="cls-31" points="1115.07 2703.13 1337.99 2574.43 1337.99 2445.81 1115.07 2574.43 1115.07 2703.13"/><polygon class="cls-31" points="2006.96 3089.37 2452.59 2831.84 2452.23 2703.15 2006.75 2960.54 2006.96 3089.37"/><polygon class="cls-31" points="1895.28 2767.48 2006.74 2703.22 2006.74 2831.83 1895.28 2896.18 1895.28 2767.48"/><polygon class="cls-31" points="2118.21 2638.86 2229.67 2574.61 2229.67 2703.22 2118.21 2767.57 2118.21 2638.86"/><polygon class="cls-31" points="1338 1931.06 1338 2059.76 1449.46 1995.4 1449.46 1866.7 1338 1931.06"/><polygon class="cls-31" points="1226.54 1995.4 1226.54 2124.11 1338 2059.76 1338 1931.06 1226.54 1995.4"/><polygon class="cls-31" points="1560.92 1931.06 1560.92 2059.76 1672.38 1995.4 1672.38 1866.7 1560.92 1931.06"/><polygon class="cls-31" points="1560.92 1802.2 1560.92 1931.06 1672.38 1866.7 1671.6 1738.3 1560.92 1802.2"/><polygon class="cls-31" points="1115.09 2059.76 1115.09 2188.46 1226.54 2124.11 1226.54 1995.4 1115.09 2059.76"/><polygon class="cls-31" points="1226.54 2124.11 1226.54 2252.81 1338 2188.46 1338 2059.76 1226.54 2124.11"/><polygon class="cls-31" points="1338 2188.46 1338 2317.16 1449.46 2252.81 1449.46 2124.11 1338 2188.46"/><polygon class="cls-31" points="2675.5 1931.02 2675.5 2059.64 2786.96 1995.37 2786.96 1866.67 2675.5 1931.02"/><polygon class="cls-31" points="1226.64 2767.74 1226.64 2896.36 1338.1 2832.09 1338.1 2703.39 1226.64 2767.74"/><polygon class="cls-31" points="1338.13 2574.52 1338.13 2703.14 1449.59 2638.87 1449.59 2510.16 1338.13 2574.52"/><polygon class="cls-31" points="1560.92 2059.76 1560.92 2188.46 1672.38 2124.11 1672.38 1995.4 1560.92 2059.76"/><polygon class="cls-31" points="1672.38 1866.7 1672.38 1995.4 1783.84 1931.06 1783.84 1802.35 1672.38 1866.7"/><polygon class="cls-31" points="1226.54 1995.4 1226.54 2124.11 1338 2059.76 1338 1931.06 1226.54 1995.4"/><polygon class="cls-31" points="1338 1931.06 1338 2059.76 1449.46 1995.4 1449.46 1866.7 1338 1931.06"/><polygon class="cls-31" points="1338 1931.06 1338 2059.76 1449.46 1995.4 1449.46 1866.7 1338 1931.06"/><polygon class="cls-31" points="1115.09 1673.65 1115.09 1802.35 1226.54 1738 1226.54 1609.3 1115.09 1673.65"/><polygon class="cls-31" points="1338 1931.06 1338 2059.76 1449.46 1995.4 1449.46 1866.7 1338 1931.06"/><polygon class="cls-31" points="2898.41 1931.43 2898.41 2060.05 3009.87 1995.78 3009.87 1867.08 2898.41 1931.43"/><polygon class="cls-31" points="2786.95 1094.32 2786.95 1222.94 2898.41 1158.67 2898.41 1029.97 2786.95 1094.32"/><polygon class="cls-31" points="2675.5 772.77 2675.5 901.39 2786.96 837.12 2786.96 708.42 2675.5 772.77"/><polygon class="cls-31" points="2786.95 966.07 2786.95 1094.69 2898.41 1030.42 2898.41 901.72 2786.95 966.07"/><polygon class="cls-31" points="2786.95 1609.47 2786.95 1738.09 2898.41 1673.82 2898.41 1545.12 2786.95 1609.47"/><polygon class="cls-31" points="2341.13 2381.47 2341.13 2510.09 2452.59 2445.82 2452.59 2317.12 2341.13 2381.47"/><polygon class="cls-31" points="3344.24 1545.16 3344.24 1930.91 3455.7 1866.64 3455.7 1480.81 3344.24 1545.16"/><polygon class="cls-31" points="2006.74 2574.6 2006.74 2703.22 2118.2 2638.95 2118.2 2510.25 2006.74 2574.6"/><polygon class="cls-31" points="1560.87 3089.78 1560.87 3218.4 1672.33 3154.13 1672.33 3025.43 1560.87 3089.78"/><polygon class="cls-31" points="1783.84 2960.66 1783.84 3089.28 1895.3 3025.01 1895.3 2896.31 1783.84 2960.66"/><polygon class="cls-31" points="1226.64 3025.47 1226.64 3154.09 1338.1 3089.82 1338.1 2961.12 1226.64 3025.47"/><polygon class="cls-31" points="557.79 1094.54 557.79 1351.86 669.25 1287.59 669.25 1030.19 557.79 1094.54"/><polygon class="cls-31" points="446.33 515.34 446.33 643.96 557.79 579.69 557.79 450.99 446.33 515.34"/><polygon class="cls-31" points="223.42 1288.8 223.42 1417.42 334.88 1353.15 334.88 1224.45 223.42 1288.8"/><polygon class="cls-31" points="557.79 1866.71 557.79 2124.1 669.25 2059.83 669.25 1802.36 557.79 1866.71"/><polygon class="cls-31" points="334.88 965.88 334.88 1094.5 446.33 1030.23 446.33 901.53 334.88 965.88"/><polygon class="cls-31" points="0.5 644.04 0.5 772.66 111.96 708.39 111.96 579.69 0.5 644.04"/><polygon class="cls-31" points="3455.71 579.65 3455.72 708.27 3567.17 644 3567.17 515.3 3455.71 579.65"/><polygon class="cls-31" points="3567.17 1030.15 3567.17 1158.77 3678.63 1094.5 3678.63 965.8 3567.17 1030.15"/><polygon class="cls-31" points="3121.34 1416.5 3121.34 1545.12 3232.8 1480.85 3232.8 1352.15 3121.34 1416.5"/><polygon class="cls-31" points="446.33 1544.95 446.33 1673.57 557.79 1609.3 557.79 1480.6 446.33 1544.95"/><polygon class="cls-31" points="780.71 2381.51 780.71 2510.21 892.17 2445.86 892.17 2317.16 780.71 2381.51"/><polygon class="cls-31" points="2006.74 772.38 2006.74 901 2118.2 836.73 2118.2 708.03 2006.74 772.38"/><polygon class="cls-31" points="1560.92 1931.06 1560.92 2059.76 1672.38 1995.4 1672.38 1866.7 1560.92 1931.06"/><polygon class="cls-31" points="1449.46 1995.4 1449.46 2124.11 1560.92 2059.76 1560.92 1931.06 1449.46 1995.4"/><polygon class="cls-31" points="1672.38 1866.7 1672.38 1995.4 1783.84 1931.06 1783.91 1803.32 1672.38 1866.7"/><polygon class="cls-31" points="1003.61 1609.31 1003.63 1738 1115.09 1673.65 1115.07 1544.96 1003.61 1609.31"/><polygon class="cls-31" points="1003.61 965.8 1003.61 1094.42 1115.07 1030.15 1115.07 901.45 1003.61 965.8"/><polygon class="cls-31" points="1895.29 1866.77 2118.2 1738.07 2118.2 1609.45 1895.29 1738.07 1895.29 1866.77"/><polygon class="cls-31" points="2118.2 2252.82 2229.66 2188.56 2229.66 2317.17 2117.84 2381.52 2118.2 2252.82"/><polygon class="cls-31" points="2452.58 1931.22 2564.04 1866.73 2564.04 1995.48 2452.58 2059.83 2452.58 1931.22"/><polygon class="cls-31" points="2118.2 2252.86 2452.58 2059.83 2452.58 1931.13 2118.2 2124.16 2118.2 2252.86"/><polygon class="cls-31" points="1783.84 1802.35 1783.84 1931.06 1672.38 1995.4 1672.38 1866.7 1783.84 1802.35"/><polygon class="cls-31" points="2341.12 1223.11 2564.04 1094.41 2564.04 965.79 2341.12 1094.41 2341.12 1223.11"/><polygon class="cls-31" points="2564.04 1609.16 2675.5 1544.9 2675.5 1673.72 2564.04 1737.86 2564.04 1609.16"/><polygon class="cls-31" points="2564.04 1609.2 2898.41 1416.17 2898.41 1287.47 2564.04 1480.5 2564.04 1609.2"/><polygon class="cls-32" points="1449.45 1223.18 1672.37 1094.48 1672.37 965.86 1449.45 1094.48 1449.45 1223.18"/><polygon class="cls-31" points="2006.75 1287.53 2118.2 1223.27 2118.2 1351.88 2006.75 1416.23 2006.75 1287.53"/><polygon class="cls-31" points="1337.99 1158.93 1337.99 1287.56 1226.54 1351.87 1226.54 1223.16 1337.99 1158.93"/><polygon class="cls-31" points="892.17 1158.85 892.17 1287.55 780.71 1351.9 780.71 1223.2 892.17 1158.85"/><polygon class="cls-31" points="780.71 1223.2 780.71 1351.9 669.25 1416.25 669.24 1287.52 780.71 1223.2"/><polygon class="cls-31" points="780.71 1351.9 780.69 1480.61 669.24 1544.92 669.25 1416.25 780.71 1351.9"/><polygon class="cls-31" points="2898.41 1287.43 3009.87 1223.17 3009.87 1351.78 2898.41 1416.13 2898.41 1287.43"/><polygon class="cls-31" points="2229.66 1158.84 2229.66 1287.47 2118.21 1351.77 2118.21 1223.07 2229.66 1158.84"/><polygon class="cls-31" points="3009.81 1867.48 3232.84 1738.83 3232.73 1481.48 3009.81 1610.19 3009.81 1867.48"/><polygon class="cls-31" points="1672.37 1609.32 2006.75 1416.28 2006.75 1287.58 1672.37 1480.62 1672.37 1609.32"/><polygon class="cls-23" points="1671.6 193.47 1783.06 257.9 1783.06 515.55 1671.6 451.28 1671.6 193.47"/><polygon class="cls-33" points="1671.6 193.47 1783.06 257.9 1894.52 193.55 1783.06 129.2 1671.6 193.47"/><polygon class="cls-31" points="1783.06 257.86 1783.06 515.51 1894.52 451.24 1894.52 193.51 1783.06 257.86"/><polygon class="cls-23" points="1226.54 64.85 1338 129.28 1338 257.9 1226.54 193.63 1226.54 64.85"/><polygon class="cls-33" points="1226.54 64.85 1338 129.28 1449.46 64.93 1338 0.58 1226.54 64.85"/><polygon class="cls-31" points="1338 129.24 1338 257.86 1449.46 193.59 1449.46 64.89 1338 129.24"/><polygon class="cls-23" points="2006.74 386.6 2118.2 451.03 2118.2 579.65 2006.74 515.38 2006.74 386.6"/><polygon class="cls-33" points="2006.74 386.6 2118.2 451.03 2229.66 386.68 2118.2 322.33 2006.74 386.6"/><polygon class="cls-31" points="2118.2 450.99 2118.2 579.61 2229.66 515.34 2229.66 386.64 2118.2 450.99"/></svg>